<svg width="17" height="16" viewBox="0 0 17 16" fill="none" xmlns="http://www.w3.org/2000/svg">
<path d="M8.23438 15.6953C3.94531 15.6953 0.398438 12.1484 0.398438 7.85938C0.398438 3.5625 3.9375 0.0234375 8.22656 0.0234375C12.5234 0.0234375 16.0703 3.5625 16.0703 7.85938C16.0703 12.1484 12.5234 15.6953 8.23438 15.6953ZM8.23438 14.6797C12.0156 14.6797 15.0625 11.6328 15.0625 7.85938C15.0625 4.07812 12.0078 1.03125 8.22656 1.03125C4.45312 1.03125 1.41406 4.07812 1.41406 7.85938C1.41406 11.6328 4.45312 14.6797 8.23438 14.6797ZM8.82812 10.4062C8.45312 10.8047 8.01562 10.8125 7.64062 10.4062L4.39844 7.03125C4.21875 6.83594 4.21094 6.5625 4.38281 6.375C4.5625 6.1875 4.86719 6.17969 5.04688 6.375L8.23438 9.70312L11.4141 6.375C11.5938 6.17969 11.8906 6.19531 12.0781 6.375C12.2578 6.55469 12.2422 6.83594 12.0625 7.03125L8.82812 10.4062Z" fill="#F70759"/>
</svg>
