<svg width="17" height="17" viewBox="0 0 17 17" fill="none" xmlns="http://www.w3.org/2000/svg">
<path d="M8.36719 16.8359C12.7266 16.8359 16.3359 13.2266 16.3359 8.86719C16.3359 4.51562 12.7188 0.898438 8.35938 0.898438C4.00781 0.898438 0.398438 4.51562 0.398438 8.86719C0.398438 13.2266 4.01562 16.8359 8.36719 16.8359ZM5.42188 12.8516C4.51562 12.8516 4.0625 12.4062 4.0625 11.5078V6.22656C4.0625 5.33594 4.51562 4.88281 5.42188 4.88281H11.3125C12.2188 4.88281 12.6719 5.33594 12.6719 6.22656V11.5078C12.6719 12.4062 12.2188 12.8516 11.3125 12.8516H5.42188ZM5.35938 12.1094H11.3672C11.7422 12.1094 11.9297 11.9297 11.9297 11.5469V7.46875C11.9297 7.07031 11.7109 6.86719 11.3359 6.86719H5.39844C5.01562 6.86719 4.80469 7.07031 4.80469 7.46875V11.5469C4.80469 11.9297 5 12.1094 5.35938 12.1094ZM7.5 8.48438C7.3125 8.48438 7.25781 8.42969 7.25781 8.25781V7.94531C7.25781 7.76562 7.3125 7.70312 7.5 7.70312H7.79688C7.98438 7.70312 8.04688 7.76562 8.04688 7.94531V8.25781C8.04688 8.42969 7.98438 8.48438 7.79688 8.48438H7.5ZM8.9375 8.48438C8.75 8.48438 8.69531 8.42969 8.69531 8.25781V7.94531C8.69531 7.76562 8.75 7.70312 8.9375 7.70312H9.23438C9.42188 7.70312 9.47656 7.76562 9.47656 7.94531V8.25781C9.47656 8.42969 9.42188 8.48438 9.23438 8.48438H8.9375ZM10.375 8.48438C10.1797 8.48438 10.125 8.42969 10.125 8.25781V7.94531C10.125 7.76562 10.1797 7.70312 10.375 7.70312H10.6641C10.8516 7.70312 10.9141 7.76562 10.9141 7.94531V8.25781C10.9141 8.42969 10.8516 8.48438 10.6641 8.48438H10.375ZM6.07031 9.89062C5.88281 9.89062 5.82031 9.84375 5.82031 9.66406V9.35938C5.82031 9.17188 5.88281 9.11719 6.07031 9.11719H6.36719C6.55469 9.11719 6.60938 9.17188 6.60938 9.35938V9.66406C6.60938 9.84375 6.55469 9.89062 6.36719 9.89062H6.07031ZM7.5 9.89062C7.3125 9.89062 7.25781 9.84375 7.25781 9.66406V9.35938C7.25781 9.17188 7.3125 9.11719 7.5 9.11719H7.79688C7.98438 9.11719 8.04688 9.17188 8.04688 9.35938V9.66406C8.04688 9.84375 7.98438 9.89062 7.79688 9.89062H7.5ZM8.9375 9.89062C8.75 9.89062 8.69531 9.84375 8.69531 9.66406V9.35938C8.69531 9.17188 8.75 9.11719 8.9375 9.11719H9.23438C9.42188 9.11719 9.47656 9.17188 9.47656 9.35938V9.66406C9.47656 9.84375 9.42188 9.89062 9.23438 9.89062H8.9375ZM10.375 9.89062C10.1797 9.89062 10.125 9.84375 10.125 9.66406V9.35938C10.125 9.17188 10.1797 9.11719 10.375 9.11719H10.6641C10.8516 9.11719 10.9141 9.17188 10.9141 9.35938V9.66406C10.9141 9.84375 10.8516 9.89062 10.6641 9.89062H10.375ZM6.07031 11.3047C5.88281 11.3047 5.82031 11.25 5.82031 11.0625V10.7578C5.82031 10.5781 5.88281 10.5312 6.07031 10.5312H6.36719C6.55469 10.5312 6.60938 10.5781 6.60938 10.7578V11.0625C6.60938 11.25 6.55469 11.3047 6.36719 11.3047H6.07031ZM7.5 11.3047C7.3125 11.3047 7.25781 11.25 7.25781 11.0625V10.7578C7.25781 10.5781 7.3125 10.5312 7.5 10.5312H7.79688C7.98438 10.5312 8.04688 10.5781 8.04688 10.7578V11.0625C8.04688 11.25 7.98438 11.3047 7.79688 11.3047H7.5ZM8.9375 11.3047C8.75 11.3047 8.69531 11.25 8.69531 11.0625V10.7578C8.69531 10.5781 8.75 10.5312 8.9375 10.5312H9.23438C9.42188 10.5312 9.47656 10.5781 9.47656 10.7578V11.0625C9.47656 11.25 9.42188 11.3047 9.23438 11.3047H8.9375Z" fill="white"/>
</svg>
