<svg width="17" height="16" viewBox="0 0 17 16" fill="none" xmlns="http://www.w3.org/2000/svg">
<path d="M2.56543 15.5356H14.1118C15.7305 15.5356 16.5605 14.7056 16.5605 13.1118V2.93506C16.5605 1.33301 15.7305 0.50293 14.1118 0.50293H2.56543C0.946777 0.50293 0.116699 1.32471 0.116699 2.93506V13.1118C0.116699 14.7139 0.946777 15.5356 2.56543 15.5356ZM2.49072 14.5063C1.61914 14.5063 1.146 14.0498 1.146 13.1533V5.55811C1.146 4.66162 1.61914 4.19678 2.49072 4.19678H14.1782C15.0332 4.19678 15.5312 4.66162 15.5312 5.55811V13.1533C15.5312 14.0498 15.0332 14.5063 14.1782 14.5063H2.49072ZM6.69092 7.15186H7.18066C7.43799 7.15186 7.5127 7.08545 7.5127 6.82812V6.33838C7.5127 6.08105 7.43799 6.01465 7.18066 6.01465H6.69092C6.42529 6.01465 6.35889 6.08105 6.35889 6.33838V6.82812C6.35889 7.08545 6.42529 7.15186 6.69092 7.15186ZM9.50488 7.15186H9.99463C10.252 7.15186 10.3267 7.08545 10.3267 6.82812V6.33838C10.3267 6.08105 10.252 6.01465 9.99463 6.01465H9.50488C9.24756 6.01465 9.17285 6.08105 9.17285 6.33838V6.82812C9.17285 7.08545 9.24756 7.15186 9.50488 7.15186ZM12.3188 7.15186H12.8086C13.0659 7.15186 13.1406 7.08545 13.1406 6.82812V6.33838C13.1406 6.08105 13.0659 6.01465 12.8086 6.01465H12.3188C12.0615 6.01465 11.9868 6.08105 11.9868 6.33838V6.82812C11.9868 7.08545 12.0615 7.15186 12.3188 7.15186ZM3.87695 9.91602H4.3667C4.62402 9.91602 4.69873 9.85791 4.69873 9.60059V9.11084C4.69873 8.85352 4.62402 8.78711 4.3667 8.78711H3.87695C3.61133 8.78711 3.54492 8.85352 3.54492 9.11084V9.60059C3.54492 9.85791 3.61133 9.91602 3.87695 9.91602ZM6.69092 9.91602H7.18066C7.43799 9.91602 7.5127 9.85791 7.5127 9.60059V9.11084C7.5127 8.85352 7.43799 8.78711 7.18066 8.78711H6.69092C6.42529 8.78711 6.35889 8.85352 6.35889 9.11084V9.60059C6.35889 9.85791 6.42529 9.91602 6.69092 9.91602ZM9.50488 9.91602H9.99463C10.252 9.91602 10.3267 9.85791 10.3267 9.60059V9.11084C10.3267 8.85352 10.252 8.78711 9.99463 8.78711H9.50488C9.24756 8.78711 9.17285 8.85352 9.17285 9.11084V9.60059C9.17285 9.85791 9.24756 9.91602 9.50488 9.91602ZM12.3188 9.91602H12.8086C13.0659 9.91602 13.1406 9.85791 13.1406 9.60059V9.11084C13.1406 8.85352 13.0659 8.78711 12.8086 8.78711H12.3188C12.0615 8.78711 11.9868 8.85352 11.9868 9.11084V9.60059C11.9868 9.85791 12.0615 9.91602 12.3188 9.91602ZM3.87695 12.6885H4.3667C4.62402 12.6885 4.69873 12.6304 4.69873 12.373V11.8833C4.69873 11.626 4.62402 11.5596 4.3667 11.5596H3.87695C3.61133 11.5596 3.54492 11.626 3.54492 11.8833V12.373C3.54492 12.6304 3.61133 12.6885 3.87695 12.6885ZM6.69092 12.6885H7.18066C7.43799 12.6885 7.5127 12.6304 7.5127 12.373V11.8833C7.5127 11.626 7.43799 11.5596 7.18066 11.5596H6.69092C6.42529 11.5596 6.35889 11.626 6.35889 11.8833V12.373C6.35889 12.6304 6.42529 12.6885 6.69092 12.6885ZM9.50488 12.6885H9.99463C10.252 12.6885 10.3267 12.6304 10.3267 12.373V11.8833C10.3267 11.626 10.252 11.5596 9.99463 11.5596H9.50488C9.24756 11.5596 9.17285 11.626 9.17285 11.8833V12.373C9.17285 12.6304 9.24756 12.6885 9.50488 12.6885Z" fill="#F70759"/>
</svg>
