<svg width="18" height="18" viewBox="0 0 18 18" fill="none" xmlns="http://www.w3.org/2000/svg">
<path d="M16.6992 0.980469C17.0684 0.980469 17.3584 1.25293 17.3584 1.5957C17.3584 1.78027 17.2881 1.93848 17.1387 2.0791L13.3594 5.87598L11.8828 7.2207L14.4668 7.08008H15.7939C16.1367 7.08008 16.4092 7.33496 16.4268 7.67773C16.4443 8.03809 16.1543 8.32812 15.7939 8.32812H10.6875C10.2217 8.32812 9.99316 8.09961 9.99316 7.63379V2.54492C9.99316 2.18457 10.3008 1.90332 10.6523 1.9209C10.9951 1.93848 11.25 2.20215 11.25 2.54492V3.85449L11.1094 6.42969L12.4541 4.9707L16.2422 1.17383C16.374 1.04199 16.5146 0.980469 16.6992 0.980469ZM5.09766 13.1357C2.55762 10.6045 0.632812 7.5459 0.632812 5.02344C0.632812 3.90723 1.01074 2.89648 1.86328 2.0791C2.38184 1.57812 2.97949 1.31445 3.55957 1.31445C4.03418 1.31445 4.46484 1.49902 4.77246 1.9209L6.66211 4.58398C6.95215 4.99707 7.10156 5.33984 7.10156 5.65625C7.10156 6.06055 6.86426 6.41211 6.47754 6.81641L5.85352 7.45801C5.75684 7.55469 5.72168 7.66895 5.72168 7.7832C5.72168 7.91504 5.77441 8.03809 5.81836 8.13477C6.09961 8.67969 6.89941 9.61133 7.76074 10.4727C8.63086 11.334 9.5625 12.1338 10.1074 12.4238C10.1953 12.4678 10.3271 12.5205 10.459 12.5205C10.5732 12.5205 10.6963 12.4766 10.793 12.3799L11.417 11.7646C11.8213 11.3691 12.1816 11.1406 12.5771 11.1406C12.8936 11.1406 13.2363 11.2812 13.6494 11.5625L16.3477 13.4785C16.7607 13.7773 16.9277 14.1992 16.9277 14.6387C16.9277 15.2363 16.6377 15.8428 16.1719 16.3613C15.3721 17.2402 14.3789 17.6357 13.2451 17.6357C10.7227 17.6357 7.6377 15.6758 5.09766 13.1357Z" fill="white"/>
</svg>
