<svg width="31" height="31" viewBox="0 0 31 31" fill="none" xmlns="http://www.w3.org/2000/svg">
<path d="M15.3145 30.1162C23.3564 30.1162 30.0068 23.4658 30.0068 15.4238C30.0068 7.36719 23.3564 0.731445 15.2998 0.731445C7.25781 0.731445 0.62207 7.36719 0.62207 15.4238C0.62207 23.4658 7.27246 30.1162 15.3145 30.1162ZM15.3145 28.2119C8.22461 28.2119 2.52637 22.499 2.52637 15.4238C2.52637 8.33398 8.22461 2.62109 15.2998 2.62109C22.3896 2.62109 28.1172 8.33398 28.1172 15.4238C28.1172 22.499 22.4043 28.2119 15.3145 28.2119ZM11.5645 18.9248C14.9336 22.3086 19.4307 24.5645 22.0527 21.9277C22.1406 21.8545 22.1846 21.7812 22.2578 21.708C23.0342 20.873 23.1807 19.9502 22.4189 19.3203C21.9209 18.9395 21.3496 18.5439 19.6797 17.3867C18.918 16.8594 18.3174 16.9326 17.6143 17.6211L16.999 18.207C16.8379 18.3828 16.5596 18.3682 16.3545 18.251C15.8564 17.9434 14.9482 17.2695 14.084 16.4053C13.2197 15.5557 12.5166 14.6328 12.2529 14.1494C12.1504 13.959 12.1064 13.7246 12.2822 13.5342L12.8828 12.8896C13.5713 12.1426 13.6299 11.5713 13.0879 10.8096L11.2275 8.17285C10.583 7.25 9.64551 7.64551 8.7666 8.26074C8.67871 8.31934 8.62012 8.39258 8.56152 8.43652C5.93945 11.0732 8.18066 15.5557 11.5645 18.9248Z" fill="#F70759"/>
</svg>
