<svg width="17" height="16" viewBox="0 0 17 16" fill="none" xmlns="http://www.w3.org/2000/svg">
<path d="M8.76562 15.6953C13.0547 15.6953 16.6016 12.1484 16.6016 7.85938C16.6016 3.5625 13.0547 0.0234375 8.75781 0.0234375C4.46875 0.0234375 0.929688 3.5625 0.929688 7.85938C0.929688 12.1484 4.47656 15.6953 8.76562 15.6953ZM8.76562 14.6797C4.98438 14.6797 1.94531 11.6328 1.94531 7.85938C1.94531 4.07812 4.98438 1.03125 8.75781 1.03125C12.5391 1.03125 15.5938 4.07812 15.5938 7.85938C15.5938 11.6328 12.5469 14.6797 8.76562 14.6797ZM9.35938 10.4062L12.5938 7.03125C12.7734 6.83594 12.7891 6.55469 12.6094 6.375C12.4219 6.19531 12.125 6.17969 11.9453 6.375L8.76562 9.70312L5.57812 6.375C5.39844 6.17969 5.09375 6.1875 4.91406 6.375C4.74219 6.5625 4.75 6.83594 4.92969 7.03125L8.17188 10.4062C8.54688 10.8125 8.98438 10.8047 9.35938 10.4062Z" fill="#F70759"/>
</svg>
