<svg width="23" height="23" viewBox="0 0 23 23" fill="none" xmlns="http://www.w3.org/2000/svg">
<path d="M11.6973 22.0186C17.5947 22.0186 22.4717 17.1416 22.4717 11.2441C22.4717 5.33594 17.5947 0.469727 11.6865 0.469727C5.78906 0.469727 0.922852 5.33594 0.922852 11.2441C0.922852 17.1416 5.7998 22.0186 11.6973 22.0186ZM11.6973 20.6221C6.49805 20.6221 2.31934 16.4326 2.31934 11.2441C2.31934 6.04492 6.49805 1.85547 11.6865 1.85547C16.8857 1.85547 21.0859 6.04492 21.0859 11.2441C21.0859 16.4326 16.8965 20.6221 11.6973 20.6221ZM10.5371 16.3467C10.8057 16.3467 11.0312 16.207 11.1924 15.96L16.4131 7.80664C16.5098 7.65625 16.6064 7.46289 16.6064 7.29102C16.6064 6.92578 16.2734 6.67871 15.9297 6.67871C15.7148 6.67871 15.5107 6.80762 15.3496 7.04395L10.4941 14.7246L8.02344 11.6738C7.83008 11.416 7.63672 11.3408 7.41113 11.3408C7.05664 11.3408 6.7666 11.6309 6.7666 11.9961C6.7666 12.1787 6.8418 12.3613 6.95996 12.5225L9.82812 15.96C10.043 16.2285 10.2578 16.3467 10.5371 16.3467Z" fill="#F70759"/>
</svg>
