<svg width="23" height="14" viewBox="0 0 23 14" fill="none" xmlns="http://www.w3.org/2000/svg">
<path d="M11.7227 13.2773C12.3086 13.2773 12.8008 13.0547 13.2578 12.5859L21.9297 3.71484C22.2812 3.36328 22.457 2.94141 22.457 2.42578C22.457 1.38281 21.625 0.539062 20.5938 0.539062C20.0898 0.539062 19.6094 0.75 19.2227 1.13672L11.7344 8.87109L4.23438 1.13672C3.84766 0.75 3.36719 0.539062 2.85156 0.539062C1.82031 0.539062 0.988281 1.38281 0.988281 2.42578C0.988281 2.92969 1.16406 3.35156 1.51562 3.71484L10.1875 12.5859C10.668 13.0664 11.1484 13.2773 11.7227 13.2773Z" fill="#3D3D3D"/>
</svg>
