<svg width="16" height="16" viewBox="0 0 16 16" fill="none" xmlns="http://www.w3.org/2000/svg">
<path d="M8.01562 15.6953C12.3047 15.6953 15.8516 12.1484 15.8516 7.85938C15.8516 3.5625 12.3047 0.0234375 8.00781 0.0234375C3.71875 0.0234375 0.179688 3.5625 0.179688 7.85938C0.179688 12.1484 3.72656 15.6953 8.01562 15.6953ZM8.01562 14.6797C4.23438 14.6797 1.19531 11.6328 1.19531 7.85938C1.19531 4.07812 4.23438 1.03125 8.00781 1.03125C11.7891 1.03125 14.8438 4.07812 14.8438 7.85938C14.8438 11.6328 11.7969 14.6797 8.01562 14.6797ZM4.46094 7.85938C4.46094 8.14062 4.67188 8.35156 4.97656 8.35156H7.50781V10.8906C7.50781 11.1875 7.71875 11.3984 8 11.3984C8.30469 11.3984 8.51562 11.1875 8.51562 10.8906V8.35156H11.0547C11.3516 8.35156 11.5625 8.14062 11.5625 7.85938C11.5625 7.55469 11.3516 7.34375 11.0547 7.34375H8.51562V4.8125C8.51562 4.50781 8.30469 4.29688 8 4.29688C7.71875 4.29688 7.50781 4.51562 7.50781 4.8125V7.34375H4.97656C4.67188 7.34375 4.46094 7.55469 4.46094 7.85938Z" fill="#F70759"/>
</svg>
