<svg width="16" height="16" viewBox="0 0 16 16" fill="none" xmlns="http://www.w3.org/2000/svg">
<path d="M7.98438 15.6953C12.2734 15.6953 15.8203 12.1484 15.8203 7.85938C15.8203 3.5625 12.2734 0.0234375 7.97656 0.0234375C3.6875 0.0234375 0.148438 3.5625 0.148438 7.85938C0.148438 12.1484 3.69531 15.6953 7.98438 15.6953ZM7.98438 14.6797C4.20312 14.6797 1.16406 11.6328 1.16406 7.85938C1.16406 4.07812 4.20312 1.03125 7.97656 1.03125C11.7578 1.03125 14.8125 4.07812 14.8125 7.85938C14.8125 11.6328 11.7656 14.6797 7.98438 14.6797ZM4.70312 8.375H11.2656C11.5859 8.375 11.8203 8.1875 11.8203 7.875C11.8203 7.55469 11.6016 7.36719 11.2656 7.36719H4.70312C4.35938 7.36719 4.14062 7.55469 4.14062 7.875C4.14062 8.1875 4.375 8.375 4.70312 8.375Z" fill="#F70759"/>
</svg>
