<svg width="16" height="13" viewBox="0 0 16 13" fill="none" xmlns="http://www.w3.org/2000/svg">
<path d="M4.88337 0.622948C4.86643 0.777878 4.62927 3.35781 4.62927 3.39823C4.62927 3.40496 4.99517 3.4117 5.44239 3.4117H6.2555V5.97816C6.25889 8.48063 6.25889 8.54462 6.31648 8.37622C6.38424 8.18087 6.51299 8.01247 6.68239 7.89796L6.79758 7.82049V5.61778V3.4117H7.61069C8.0579 3.4117 8.42381 3.40496 8.42381 3.39823C8.42381 3.35781 8.18665 0.777878 8.16971 0.622948L8.14938 0.447809H6.52654H4.9037L4.88337 0.622948Z" fill="#01A8C3"/>
<path d="M2.97257 3.72064C2.89804 3.82168 2.7964 3.98671 2.74897 4.09112C2.66427 4.27637 2.56601 4.66369 2.56263 4.81526C2.56263 4.88935 2.55924 4.88935 2.38645 4.77821C2.13574 4.62328 1.84099 4.51887 1.57334 4.49866L1.34296 4.47845L1.36328 4.64349C1.45815 5.46192 2.02394 6.1187 2.79978 6.32078C2.98612 6.3713 2.98274 6.3713 2.45421 6.3713C2.04765 6.37467 1.91891 6.38477 1.91891 6.41845C1.91891 6.45213 2.2611 7.668 2.34241 7.92061L2.36274 7.99134H1.46492H0.563721V10.2816V12.5719H0.834759H1.1058V11.8983V11.2247H3.13858H5.17137V11.8983V12.5719H5.44241H5.71344V10.2816V7.99134L4.80208 7.9846L3.89071 7.9745L4.12448 7.183C4.25323 6.74852 4.35825 6.38814 4.35825 6.3814C4.35825 6.37804 4.11771 6.37467 3.82634 6.3713H3.29104L3.49432 6.31067C3.97202 6.17595 4.41246 5.83578 4.64623 5.41814C4.7682 5.20258 4.90033 4.76137 4.90033 4.57949V4.47845L4.66995 4.49866C4.4023 4.51887 4.13804 4.61317 3.88394 4.77147L3.6976 4.88935L3.67388 4.68727C3.62984 4.29321 3.40284 3.80484 3.17585 3.59939C3.11148 3.54213 3.10809 3.5455 2.97257 3.72064ZM3.81618 9.60801V9.87745H3.13858H2.46099V9.60801V9.33856H3.13858H3.81618V9.60801Z" fill="#01A8C3"/>
<path d="M9.18952 4.79516C8.97947 4.84568 8.67116 5.02419 8.52209 5.18586C8.44756 5.26669 8.33575 5.43509 8.27816 5.55971L8.16974 5.78537L8.15958 6.78568L8.14941 7.786L8.36624 7.99819C8.59663 8.22048 8.69488 8.4293 8.69488 8.68864V8.79642L8.81346 8.71895C9.05739 8.55392 9.14209 8.54718 11.3239 8.54718H13.3567L13.6007 8.66843L13.8446 8.78631V8.66843C13.848 8.50339 13.9462 8.22721 14.0479 8.1026C14.0953 8.04871 14.1902 7.95777 14.2613 7.90388L14.3901 7.80621L14.3799 6.79579L14.3697 5.782L14.2444 5.52603C14.0919 5.21954 13.8954 5.03093 13.5803 4.88273L13.3533 4.77495L11.3375 4.76822C10.189 4.76485 9.26406 4.77832 9.18952 4.79516Z" fill="#01A8C3"/>
<path d="M7.03477 8.32141C6.79422 8.43929 6.79761 8.39888 6.79761 10.4163C6.79761 12.0633 6.80439 12.2284 6.85859 12.3361C6.94668 12.5146 7.09236 12.5719 7.47521 12.5719C7.85805 12.5719 8.00373 12.5146 8.09182 12.3361C8.14602 12.2284 8.1528 12.0633 8.1528 10.3961V8.57402L8.07488 8.4595C7.96307 8.2911 7.87499 8.26079 7.49215 8.26079C7.23805 8.26079 7.12286 8.27426 7.03477 8.32141Z" fill="#01A8C3"/>
<path d="M14.5968 8.32873C14.3867 8.45672 14.3867 8.44325 14.3867 10.4237C14.3867 12.431 14.3833 12.394 14.6239 12.5119C14.7899 12.5961 15.3387 12.5961 15.5048 12.5119C15.7453 12.394 15.7419 12.4344 15.7419 10.4169C15.7419 8.39946 15.7453 8.43988 15.5048 8.322C15.3252 8.23106 14.7492 8.2378 14.5968 8.32873Z" fill="#01A8C3"/>
<path d="M9.23714 9.11346C9.07113 9.16734 8.78654 9.457 8.73572 9.62877C8.71201 9.70623 8.69507 9.91505 8.69507 10.0936V10.4169H11.2699H13.8448V10.0936C13.8448 9.68603 13.8007 9.5412 13.6178 9.33912C13.3671 9.06293 13.4315 9.06967 11.2564 9.07304C9.97572 9.07641 9.31846 9.08988 9.23714 9.11346Z" fill="#01A8C3"/>
<path d="M8.69507 11.6794C8.69507 12.4069 8.69507 12.4069 8.77977 12.4877L8.86108 12.5719H11.2699H13.6788L13.7601 12.4877C13.8448 12.4069 13.8448 12.4069 13.8448 11.6794V10.9552H11.2699H8.69507V11.6794Z" fill="#01A8C3"/>
</svg>
