<svg width="12" height="18" viewBox="0 0 12 18" fill="none" xmlns="http://www.w3.org/2000/svg">
<path d="M1.93555 17.7676H10.2949C11.1738 17.7676 11.7305 17.2402 11.7305 16.3125V16.0586C11.7305 13.8223 9.25 11.2246 7.74609 9.73047C7.19922 9.19336 7.23828 8.64648 7.74609 8.13867C9.25 6.64453 11.7305 4.06641 11.7305 1.81055V1.57617C11.7305 0.658203 11.1738 0.130859 10.2949 0.130859H1.93555C1.04688 0.130859 0.490234 0.658203 0.490234 1.57617V1.81055C0.490234 4.06641 2.98047 6.64453 4.48438 8.13867C4.99219 8.64648 5.02148 9.19336 4.48438 9.73047C2.98047 11.2246 0.490234 13.8223 0.490234 16.0586V16.3125C0.490234 17.2402 1.04688 17.7676 1.93555 17.7676ZM2.60938 16.6348C2.24805 16.6348 2.15039 16.2246 2.4043 15.9805L5.64648 12.8066C5.77344 12.6895 5.80273 12.6406 5.80273 12.4746V8.35352C5.80273 7.99219 5.74414 7.82617 5.48047 7.5918C4.72852 6.9375 3.77148 6.03906 3.12695 5.31641C2.91211 5.0918 3.01953 4.83789 3.2832 4.83789H8.9375C9.20117 4.83789 9.31836 5.0918 9.10352 5.31641C8.45898 6.03906 7.50195 6.9375 6.74023 7.5918C6.47656 7.82617 6.41797 7.99219 6.41797 8.35352V12.4746C6.41797 12.6406 6.44727 12.6895 6.57422 12.8066L9.81641 15.9805C10.0801 16.2246 9.97266 16.6348 9.62109 16.6348H2.60938Z" fill="#F70759"/>
</svg>
