<svg width="25" height="25" viewBox="0 0 25 25" fill="none" xmlns="http://www.w3.org/2000/svg">
<path d="M11.5848 1.00436C9.8457 1.16843 8.52383 1.53874 7.08008 2.2653C6.03008 2.7903 5.05977 3.47936 4.17852 4.33249C3.11445 5.35905 2.35977 6.38561 1.71289 7.69811C1.12227 8.90749 0.761328 10.0934 0.559766 11.495C0.480078 12.0481 0.480078 13.895 0.559766 14.4481C0.756641 15.8309 1.12227 17.0403 1.69414 18.1981C2.33633 19.5106 2.96914 20.3919 4.00977 21.4372C5.0457 22.4684 5.94102 23.1106 7.20195 23.7294C8.0832 24.1606 8.65039 24.3716 9.5457 24.5966C11.8895 25.1872 14.2426 25.0747 16.5301 24.2637C17.2285 24.0153 18.4379 23.4106 19.0613 22.9934C20.4629 22.0606 21.7473 20.7434 22.666 19.2997C23.0035 18.77 23.5473 17.645 23.7676 17.0216C24.8691 13.9184 24.677 10.5903 23.2285 7.67936C22.6473 6.50749 21.9957 5.58405 21.0816 4.64186C20.0691 3.59187 19.0754 2.86999 17.7488 2.21374C16.3613 1.52937 15.0676 1.15905 13.5301 1.01843C13.052 0.97624 11.9691 0.966864 11.5848 1.00436ZM18.6395 8.1903C18.916 8.32624 19.1832 8.58405 19.3285 8.85593L19.4363 9.05749L19.4504 12.8684C19.4551 15.3294 19.4457 16.7403 19.4129 16.8575C19.3473 17.1153 19.1035 17.4575 18.8785 17.6075C18.4426 17.9075 18.752 17.8981 12.3535 17.8841L6.5457 17.87L6.32539 17.7575C6.04414 17.6216 5.76289 17.3497 5.62227 17.0872L5.51445 16.8856V12.9716C5.51445 8.62155 5.49102 8.98718 5.82383 8.56061C5.95977 8.38718 6.34414 8.1528 6.58789 8.09186C6.66758 8.07311 9.3582 8.06374 12.5691 8.06374L18.4051 8.07311L18.6395 8.1903Z" fill="#3D3D3D"/>
</svg>
