<svg width="47" height="19" viewBox="0 0 47 19" fill="none" xmlns="http://www.w3.org/2000/svg">
<path d="M12.3115 18.418C17.2627 18.418 21.291 14.3896 21.291 9.42383V9.37988C21.9795 9.08691 22.7705 8.94043 23.5029 8.94043C24.2354 8.94043 25.0264 9.08691 25.7148 9.37988V9.42383C25.7148 14.3896 29.7432 18.418 34.709 18.418C39.3965 18.418 43.2637 14.8145 43.6738 10.2295H45.417C46.0615 10.2295 46.3838 9.90723 46.3838 9.27734V8.79395C46.3838 8.16406 46.0615 7.8418 45.417 7.8418H43.5566C42.8096 3.6377 39.1328 0.444336 34.709 0.444336C30.4756 0.444336 26.9307 3.35938 25.9639 7.28516C25.1875 6.97754 24.25 6.86035 23.5029 6.86035C22.7559 6.86035 21.8184 6.97754 21.042 7.28516C20.0752 3.35938 16.5303 0.444336 12.3115 0.444336C7.87305 0.444336 4.19629 3.6377 3.44922 7.8418H1.58887C0.958984 7.8418 0.62207 8.16406 0.62207 8.79395V9.27734C0.62207 9.90723 0.958984 10.2295 1.58887 10.2295H3.34668C3.74219 14.8145 7.60938 18.418 12.3115 18.418ZM12.3115 16.5283C8.37109 16.5283 5.19238 13.3496 5.19238 9.42383C5.19238 5.49805 8.37109 2.31934 12.3115 2.31934C16.2227 2.31934 19.4014 5.5127 19.4014 9.42383C19.4014 13.335 16.2227 16.5283 12.3115 16.5283ZM34.709 16.5283C30.7832 16.5283 27.6045 13.335 27.6045 9.42383C27.6045 5.5127 30.7832 2.31934 34.709 2.31934C38.6348 2.31934 41.8135 5.49805 41.8135 9.42383C41.8135 13.3496 38.6348 16.5283 34.709 16.5283Z" fill="#F70759"/>
</svg>
