<svg width="24" height="25" viewBox="0 0 24 25" fill="none" xmlns="http://www.w3.org/2000/svg">
<path d="M11.0991 0.68798C9.35779 0.852254 8.0342 1.22305 6.58859 1.95055C4.683 2.90334 2.91822 4.52262 1.75891 6.38127C0.918765 7.72363 0.308602 9.45555 0.0598429 11.1922C-0.0199476 11.746 -0.0199476 13.5953 0.0598429 14.1491C0.256972 15.5337 0.62307 16.7447 1.19568 17.904C1.8387 19.2182 2.47233 20.1005 3.5143 21.1472C4.55158 22.1798 5.44805 22.8228 6.71062 23.4424C7.59301 23.8742 8.16093 24.0854 9.0574 24.3107C11.4042 24.9021 13.7603 24.7894 16.0508 23.9774C16.7501 23.7287 17.9611 23.1232 18.5853 22.7055C20.2985 21.5649 21.7159 19.9926 22.65 18.1856C23.4995 16.5522 23.9219 14.9282 23.9923 13.0696C24.0627 11.0701 23.6497 9.16455 22.7579 7.37161C22.1759 6.19822 21.5235 5.27359 20.6083 4.33018C19.5944 3.27883 18.5994 2.55602 17.2711 1.89892C15.8818 1.21366 14.5864 0.842867 13.0469 0.70206C12.5682 0.659818 11.484 0.650431 11.0991 0.68798ZM15.1731 7.3059L15.1825 8.48398L14.3283 8.50276C13.0282 8.52623 13.0235 8.53092 13.0235 9.83103V10.6524H14.1264C14.7319 10.6524 15.2294 10.6571 15.2294 10.6665C15.2294 10.6759 15.1778 11.1828 15.1121 11.7976C15.0464 12.4125 14.9948 12.9569 14.9948 13.0039C14.9948 13.0884 14.9478 13.0931 14.0091 13.0931H13.0235V16.5663V20.0395H11.5685H10.1135V16.5663V13.0931H9.43288H8.75232V11.8727V10.6524H9.42819H10.1041L10.1275 9.55881C10.151 8.3244 10.1979 8.06156 10.5124 7.47017C10.8973 6.73328 11.606 6.26862 12.5166 6.15128C12.6761 6.12782 13.3426 6.11373 13.9856 6.11843L15.159 6.12312L15.1731 7.3059Z" fill="#3D3D3D"/>
</svg>
