<svg width="23" height="23" viewBox="0 0 23 23" fill="none" xmlns="http://www.w3.org/2000/svg">
<path d="M11.3799 22.2012C17.374 22.2012 22.3369 17.2275 22.3369 11.2441C22.3369 5.25 17.3633 0.287109 11.3691 0.287109C5.38574 0.287109 0.422852 5.25 0.422852 11.2441C0.422852 17.2275 5.39648 22.2012 11.3799 22.2012ZM11.3799 20.375C6.30957 20.375 2.25977 16.3145 2.25977 11.2441C2.25977 6.17383 6.29883 2.11328 11.3691 2.11328C16.4395 2.11328 20.5107 6.17383 20.5107 11.2441C20.5107 16.3145 16.4502 20.375 11.3799 20.375ZM7.4375 16.5508H15.3008C16.5039 16.5508 17.1055 15.9492 17.1055 14.7676V7.7207C17.1055 6.53906 16.5039 5.9375 15.3008 5.9375H7.4375C6.23438 5.9375 5.63281 6.52832 5.63281 7.7207V14.7676C5.63281 15.9492 6.23438 16.5508 7.4375 16.5508ZM7.3623 15.5625C6.87891 15.5625 6.62109 15.3262 6.62109 14.8105V9.375C6.62109 8.84863 6.90039 8.58008 7.41602 8.58008H15.3223C15.8271 8.58008 16.1172 8.84863 16.1172 9.375V14.8105C16.1172 15.3262 15.8701 15.5625 15.3652 15.5625H7.3623ZM10.209 10.7285H10.6064C10.8535 10.7285 10.9395 10.6641 10.9395 10.417V10.0195C10.9395 9.77246 10.8535 9.68652 10.6064 9.68652H10.209C9.96191 9.68652 9.88672 9.77246 9.88672 10.0195V10.417C9.88672 10.6641 9.96191 10.7285 10.209 10.7285ZM12.1318 10.7285H12.5293C12.7764 10.7285 12.8516 10.6641 12.8516 10.417V10.0195C12.8516 9.77246 12.7764 9.68652 12.5293 9.68652H12.1318C11.8848 9.68652 11.8096 9.77246 11.8096 10.0195V10.417C11.8096 10.6641 11.8848 10.7285 12.1318 10.7285ZM14.0439 10.7285H14.4307C14.6777 10.7285 14.7637 10.6641 14.7637 10.417V10.0195C14.7637 9.77246 14.6777 9.68652 14.4307 9.68652H14.0439C13.7861 9.68652 13.7109 9.77246 13.7109 10.0195V10.417C13.7109 10.6641 13.7861 10.7285 14.0439 10.7285ZM8.30762 12.6084H8.70508C8.95215 12.6084 9.02734 12.5439 9.02734 12.2969V11.8994C9.02734 11.6523 8.95215 11.5664 8.70508 11.5664H8.30762C8.06055 11.5664 7.97461 11.6523 7.97461 11.8994V12.2969C7.97461 12.5439 8.06055 12.6084 8.30762 12.6084ZM10.209 12.6084H10.6064C10.8535 12.6084 10.9395 12.5439 10.9395 12.2969V11.8994C10.9395 11.6523 10.8535 11.5664 10.6064 11.5664H10.209C9.96191 11.5664 9.88672 11.6523 9.88672 11.8994V12.2969C9.88672 12.5439 9.96191 12.6084 10.209 12.6084ZM12.1318 12.6084H12.5293C12.7764 12.6084 12.8516 12.5439 12.8516 12.2969V11.8994C12.8516 11.6523 12.7764 11.5664 12.5293 11.5664H12.1318C11.8848 11.5664 11.8096 11.6523 11.8096 11.8994V12.2969C11.8096 12.5439 11.8848 12.6084 12.1318 12.6084ZM14.0439 12.6084H14.4307C14.6777 12.6084 14.7637 12.5439 14.7637 12.2969V11.8994C14.7637 11.6523 14.6777 11.5664 14.4307 11.5664H14.0439C13.7861 11.5664 13.7109 11.6523 13.7109 11.8994V12.2969C13.7109 12.5439 13.7861 12.6084 14.0439 12.6084ZM8.30762 14.499H8.70508C8.95215 14.499 9.02734 14.4238 9.02734 14.1768V13.7686C9.02734 13.5322 8.95215 13.457 8.70508 13.457H8.30762C8.06055 13.457 7.97461 13.5322 7.97461 13.7686V14.1768C7.97461 14.4238 8.06055 14.499 8.30762 14.499ZM10.209 14.499H10.6064C10.8535 14.499 10.9395 14.4238 10.9395 14.1768V13.7686C10.9395 13.5322 10.8535 13.457 10.6064 13.457H10.209C9.96191 13.457 9.88672 13.5322 9.88672 13.7686V14.1768C9.88672 14.4238 9.96191 14.499 10.209 14.499ZM12.1318 14.499H12.5293C12.7764 14.499 12.8516 14.4238 12.8516 14.1768V13.7686C12.8516 13.5322 12.7764 13.457 12.5293 13.457H12.1318C11.8848 13.457 11.8096 13.5322 11.8096 13.7686V14.1768C11.8096 14.4238 11.8848 14.499 12.1318 14.499Z" fill="#F70759"/>
</svg>
