<svg width="14" height="21" viewBox="0 0 14 21" fill="none" xmlns="http://www.w3.org/2000/svg">
<path d="M2.49023 20.1162H11.5781C12.6631 20.1162 13.3291 19.5039 13.3291 18.3545V18.1396C13.3291 15.5508 10.5898 12.8008 9.08594 11.3076C8.35547 10.5771 8.40918 9.8252 9.08594 9.14844C10.5898 7.66602 13.3291 4.92676 13.3291 2.31641V2.13379C13.3291 0.984375 12.6631 0.361328 11.5781 0.361328H2.49023C1.40527 0.361328 0.739258 0.984375 0.739258 2.13379V2.31641C0.739258 4.92676 3.48926 7.66602 4.98242 9.14844C5.66992 9.8252 5.72363 10.5771 4.98242 11.3076C3.48926 12.8008 0.739258 15.5508 0.739258 18.1396V18.3545C0.739258 19.5039 1.40527 20.1162 2.49023 20.1162ZM3.31738 18.6553C2.85547 18.6553 2.74805 18.1182 3.05957 17.8281L6.48633 14.5625C6.61523 14.4443 6.66895 14.3906 6.66895 14.2188V9.45996C6.66895 8.96582 6.57227 8.71875 6.20703 8.40723C5.4873 7.79492 4.47754 6.91406 3.81152 6.21582C3.53223 5.93652 3.68262 5.59277 4.01562 5.59277H10.0527C10.3857 5.59277 10.5361 5.93652 10.2568 6.21582C9.60156 6.91406 8.5918 7.79492 7.86133 8.40723C7.49609 8.71875 7.41016 8.96582 7.41016 9.45996V14.2188C7.41016 14.3906 7.45312 14.4443 7.58203 14.5625L11.0088 17.8281C11.3203 18.1182 11.2129 18.6553 10.751 18.6553H3.31738Z" fill="#F70759"/>
</svg>
