<svg width="42" height="21" viewBox="0 0 42 21" fill="none" xmlns="http://www.w3.org/2000/svg">
<path d="M21.2783 10.7871C23.835 10.7871 25.9189 8.50977 25.9189 5.73828C25.9189 2.99902 23.8672 0.829102 21.2783 0.829102C18.7324 0.829102 16.6377 3.03125 16.6484 5.75977C16.6484 8.52051 18.7324 10.7871 21.2783 10.7871ZM8.90332 11.0234C11.1162 11.0234 12.9316 9.03613 12.9316 6.59766C12.9316 4.21289 11.1377 2.29004 8.90332 2.29004C6.69043 2.29004 4.86426 4.24512 4.875 6.61914C4.875 9.04688 6.69043 11.0234 8.90332 11.0234ZM33.6533 11.0234C35.8662 11.0234 37.6816 9.04688 37.6816 6.61914C37.6924 4.24512 35.8662 2.29004 33.6533 2.29004C31.4189 2.29004 29.625 4.21289 29.625 6.59766C29.625 9.03613 31.4404 11.0234 33.6533 11.0234ZM21.2783 9.16504C19.71 9.16504 18.3779 7.66113 18.3779 5.75977C18.3672 3.89062 19.6885 2.45117 21.2783 2.45117C22.8896 2.45117 24.1895 3.86914 24.1895 5.73828C24.1895 7.63965 22.8682 9.16504 21.2783 9.16504ZM8.90332 9.42285C7.58203 9.42285 6.47559 8.16602 6.47559 6.61914C6.47559 5.10449 7.57129 3.89062 8.90332 3.89062C10.2568 3.89062 11.3418 5.08301 11.3418 6.59766C11.3418 8.16602 10.2246 9.42285 8.90332 9.42285ZM33.6533 9.42285C32.332 9.42285 31.2148 8.16602 31.2148 6.59766C31.2148 5.08301 32.2998 3.89062 33.6533 3.89062C34.9854 3.89062 36.0811 5.10449 36.0811 6.61914C36.0811 8.16602 34.9639 9.42285 33.6533 9.42285ZM2.91992 20.874H11.3525C10.8369 20.584 10.4502 19.9395 10.5254 19.2842H2.66211C2.43652 19.2842 2.33984 19.1982 2.33984 18.9941C2.33984 16.3301 5.37988 13.8379 8.89258 13.8379C10.2354 13.8379 11.46 14.1602 12.502 14.7725C12.835 14.3428 13.2324 13.9668 13.7158 13.6338C12.3301 12.7207 10.665 12.248 8.89258 12.248C4.3916 12.248 0.739258 15.5137 0.739258 19.0908C0.739258 20.2832 1.46973 20.874 2.91992 20.874ZM39.6367 20.874C41.0869 20.874 41.8174 20.2832 41.8174 19.0908C41.8174 15.5137 38.165 12.248 33.6641 12.248C31.8916 12.248 30.2266 12.7207 28.8408 13.6338C29.3242 13.9668 29.7217 14.3428 30.0547 14.7725C31.0967 14.1602 32.3105 13.8379 33.6641 13.8379C37.1768 13.8379 40.2168 16.3301 40.2168 18.9941C40.2168 19.1982 40.1201 19.2842 39.8945 19.2842H32.0312C32.1064 19.9395 31.709 20.584 31.2041 20.874H39.6367ZM14.5322 20.874H28.0244C29.8076 20.874 30.667 20.3369 30.667 19.1553C30.667 16.3408 27.1113 12.2695 21.2783 12.2695C15.4453 12.2695 11.8896 16.3408 11.8896 19.1553C11.8896 20.3369 12.7383 20.874 14.5322 20.874ZM14.0166 19.252C13.7373 19.252 13.6191 19.1768 13.6191 18.9512C13.6191 17.1895 16.3477 13.8916 21.2783 13.8916C26.209 13.8916 28.9375 17.1895 28.9375 18.9512C28.9375 19.1768 28.8193 19.252 28.54 19.252H14.0166Z" fill="#F70759"/>
</svg>
