<svg width="23" height="23" viewBox="0 0 23 23" fill="none" xmlns="http://www.w3.org/2000/svg">
<path d="M11.3799 22.7012C17.374 22.7012 22.3369 17.7275 22.3369 11.7441C22.3369 5.75 17.3633 0.787109 11.3691 0.787109C5.38574 0.787109 0.422852 5.75 0.422852 11.7441C0.422852 17.7275 5.39648 22.7012 11.3799 22.7012ZM11.3799 20.875C6.30957 20.875 2.25977 16.8145 2.25977 11.7441C2.25977 6.67383 6.29883 2.61328 11.3691 2.61328C16.4395 2.61328 20.5107 6.67383 20.5107 11.7441C20.5107 16.8145 16.4502 20.875 11.3799 20.875ZM7.28711 17.5234C7.57715 17.5234 7.77051 17.2979 7.77051 17.0293V13.8604C7.97461 13.7744 8.39355 13.6455 9.05957 13.6455C10.9717 13.6455 12.1748 14.5908 14.0332 14.5908C14.8496 14.5908 15.1826 14.5049 15.5908 14.3115C16.042 14.1074 16.2461 13.7959 16.2461 13.3125V8.0166C16.2461 7.70508 16.085 7.47949 15.6445 7.47949C15.333 7.47949 14.8604 7.70508 13.9795 7.70508C12.1533 7.70508 10.9395 6.74902 9.00586 6.74902C8.16797 6.74902 7.83496 6.8457 7.44824 7.01758C7.00781 7.21094 6.78223 7.55469 6.78223 8.0166V17.0293C6.78223 17.2871 7.01855 17.5234 7.28711 17.5234Z" fill="#F70759"/>
</svg>
