<svg width="31" height="31" viewBox="0 0 31 31" fill="none" xmlns="http://www.w3.org/2000/svg">
<path d="M15.3145 30.1162C23.3564 30.1162 30.0068 23.4658 30.0068 15.4238C30.0068 7.36719 23.3564 0.731445 15.2998 0.731445C7.25781 0.731445 0.62207 7.36719 0.62207 15.4238C0.62207 23.4658 7.27246 30.1162 15.3145 30.1162ZM6.30566 5.91699C7.93164 4.37891 9.95312 3.23633 12.1797 2.67969C11.0371 3.71973 10.0557 5.31641 9.33789 7.33789C8.15137 6.98633 7.12598 6.50293 6.30566 5.91699ZM18.4492 2.67969C20.6904 3.25098 22.6973 4.37891 24.3232 5.91699C23.4883 6.50293 22.4775 6.98633 21.291 7.33789C20.5732 5.31641 19.5918 3.71973 18.4492 2.67969ZM10.8467 7.71875C11.7549 5.12598 13.0879 3.32422 14.5527 2.84082V8.11426C13.2051 8.07031 11.9746 7.93848 10.8467 7.71875ZM16.0762 2.84082C17.541 3.32422 18.874 5.12598 19.7822 7.71875C18.6543 7.93848 17.4238 8.07031 16.0762 8.11426V2.84082ZM2.21875 14.6621C2.37988 11.7617 3.50781 9.11035 5.28027 7.00098C6.21777 7.71875 7.44824 8.30469 8.89844 8.74414C8.42969 10.4873 8.13672 12.4795 8.07812 14.6621H2.21875ZM22.5508 14.6621C22.4922 12.4795 22.1992 10.4873 21.7305 8.74414C23.1807 8.30469 24.4111 7.71875 25.3486 7.01562C27.1211 9.11035 28.249 11.7617 28.4102 14.6621H22.5508ZM16.0762 14.6621V9.62305C17.541 9.5791 18.9473 9.41797 20.2217 9.13965C20.6611 10.7949 20.9248 12.6699 20.9834 14.6621H16.0762ZM9.64551 14.6621C9.7041 12.6699 9.98242 10.7949 10.4072 9.13965C11.6963 9.41797 13.0879 9.5791 14.5527 9.62305V14.6621H9.64551ZM2.21875 16.1855H8.07812C8.13672 18.3828 8.42969 20.4043 8.89844 22.1621C7.47754 22.6016 6.24707 23.1875 5.32422 23.876C3.52246 21.7666 2.37988 19.1006 2.21875 16.1855ZM9.64551 16.1855H14.5527V21.2979C13.1025 21.3271 11.7109 21.5029 10.4365 21.7666C9.98242 20.0967 9.68945 18.1777 9.64551 16.1855ZM16.0762 21.2979V16.1855H20.998C20.9395 18.1777 20.6465 20.0967 20.1924 21.7666C18.918 21.5029 17.541 21.3271 16.0762 21.2979ZM21.7305 22.1621C22.1992 20.4043 22.4922 18.3828 22.5508 16.1855H28.4102C28.249 19.1006 27.1064 21.7666 25.3047 23.876C24.3818 23.1875 23.1514 22.6016 21.7305 22.1621ZM16.0762 22.8066C17.4092 22.8506 18.6396 22.9824 19.7529 23.2021C18.8447 25.7363 17.5264 27.5527 16.0762 28.0361V22.8066ZM10.876 23.2021C12.0039 22.9824 13.2197 22.8506 14.5527 22.8066V28.0361C13.1025 27.5527 11.7842 25.7363 10.876 23.2021ZM21.291 23.583C22.4482 23.9346 23.459 24.4033 24.2793 24.96C22.668 26.4688 20.6904 27.5967 18.5078 28.1533C19.6211 27.1133 20.5732 25.5459 21.291 23.583ZM6.34961 24.96C7.16992 24.4033 8.18066 23.9346 9.35254 23.583C10.0557 25.5459 11.0078 27.1133 12.1211 28.1533C9.93848 27.5967 7.96094 26.4688 6.34961 24.96Z" fill="#F70759"/>
</svg>
