<svg width="20" height="17" viewBox="0 0 20 17" fill="none" xmlns="http://www.w3.org/2000/svg">
<path d="M0.207968 0.349786C0.141574 0.377124 0.0673698 0.435707 0.0439368 0.482573C-0.0146456 0.591927 -0.0146456 4.93484 0.0439368 5.21994C0.26655 6.27833 1.37571 6.95398 2.44191 6.67669C2.77388 6.58686 3.03555 6.43454 3.30112 6.16897C3.56669 5.9073 3.71901 5.64173 3.80493 5.31757C3.88694 5.00904 3.94553 0.630981 3.87132 0.490384C3.80493 0.373219 3.58622 0.279487 3.46905 0.326353C3.41828 0.345881 3.34408 0.400558 3.30112 0.447423C3.22691 0.529438 3.22301 0.595832 3.21129 2.41579C3.20348 4.42712 3.20348 4.42712 3.0004 4.53257C2.80903 4.63021 2.62547 4.60287 2.47706 4.45446L2.34427 4.32167V2.43923C2.34427 1.16603 2.33256 0.533344 2.30131 0.478667C2.24273 0.373219 2.02402 0.287298 1.87561 0.314637C1.80922 0.330258 1.7233 0.384935 1.68034 0.439612C1.60613 0.533344 1.60223 0.603643 1.60223 2.39626C1.60223 4.18498 1.59832 4.25918 1.52412 4.38416C1.36009 4.65364 0.891429 4.65755 0.750831 4.38416C0.715682 4.31777 0.70006 3.79443 0.696154 2.41189L0.684438 0.525533L0.5868 0.431801C0.457919 0.306826 0.356376 0.283392 0.207968 0.349786Z" fill="#01A8C3"/>
<path d="M19.1183 0.361469C18.9738 0.451296 18.677 1.05274 18.556 1.50578C18.4778 1.78307 17.5366 8.74656 17.5366 9.03167C17.5366 9.1254 17.5718 9.1957 17.6499 9.27771C17.7592 9.38707 17.7788 9.39097 18.1342 9.39097C18.4505 9.39097 18.5208 9.40269 18.6341 9.4808C18.7864 9.58234 18.8176 9.66826 18.8215 10.0432L18.8254 10.3283H18.6809C18.4622 10.3322 18.2162 10.4572 18.1381 10.6095C18.0717 10.7306 18.0678 10.9102 18.0795 13.2574C18.0834 14.6439 18.099 15.8194 18.1107 15.8741C18.1459 16.0264 18.263 16.1709 18.4115 16.2412C18.513 16.2881 18.6653 16.3037 19.0598 16.3037C19.6339 16.3037 19.7823 16.2646 19.9268 16.0616C20.0088 15.9444 20.0088 15.9444 19.9893 13.3746C19.9697 10.9102 19.9658 10.8009 19.8916 10.6564C19.8487 10.5665 19.7588 10.4806 19.669 10.4337L19.5206 10.3556L19.548 9.16055C19.6573 4.10684 19.712 0.623137 19.6885 0.552838C19.6026 0.330225 19.3175 0.236494 19.1183 0.361469Z" fill="#01A8C3"/>
<path d="M9.84657 2.05281C7.60482 2.22856 5.55834 3.62673 4.56634 5.66149C3.01586 8.84837 4.31249 12.6718 7.48375 14.2653C9.65911 15.3588 12.2602 15.1362 14.209 13.6912C15.3767 12.8242 16.2399 11.5627 16.6148 10.1684C16.7866 9.52402 16.8452 8.98116 16.8218 8.25864C16.7866 7.3018 16.5914 6.49726 16.1891 5.66149C15.6189 4.47031 14.4902 3.3221 13.3029 2.72456C12.2484 2.19341 11.0377 1.95908 9.84657 2.05281ZM11.483 3.20103C12.5296 3.43145 13.3693 3.8923 14.1465 4.66168C15.0057 5.52089 15.4861 6.4543 15.6853 7.67282C15.7673 8.161 15.7361 9.11004 15.6267 9.58651C15.1932 11.4885 13.8497 12.9765 12.0297 13.5701C11.4674 13.7537 11.0338 13.8201 10.3699 13.8201C9.47555 13.8201 8.75303 13.6521 7.99146 13.2694C6.48785 12.5156 5.48023 11.2112 5.11311 9.54745C5.035 9.20768 5.01938 9.02412 5.02329 8.47344C5.02329 7.48535 5.17951 6.81751 5.60911 5.99346C6.37849 4.51327 7.82743 3.45098 9.46774 3.16197C9.89344 3.08777 11.0729 3.1112 11.483 3.20103Z" fill="#01A8C3"/>
<path d="M9.58909 3.90738C7.23798 4.30184 5.53519 6.53187 5.77733 8.8986C5.97651 10.867 7.33562 12.4565 9.23759 12.9408C11.3309 13.4719 13.5219 12.476 14.4944 10.5506C15.9004 7.76992 14.1859 4.39948 11.1161 3.90348C10.6865 3.83318 10.0109 3.83318 9.58909 3.90738ZM10.6436 4.76659C10.7725 4.90719 10.7764 5.1298 10.6514 5.27431C10.5694 5.36804 10.5264 5.37975 10.1749 5.411C9.70625 5.45005 9.34304 5.5555 8.92515 5.7703C8.68301 5.89528 8.52679 6.01635 8.24169 6.30536C8.03861 6.50844 7.81209 6.77792 7.73788 6.9029C7.52308 7.26611 7.38248 7.71914 7.33171 8.19171C7.29656 8.53539 7.26923 8.63694 7.20283 8.71114C7.08176 8.84002 6.93335 8.86736 6.77323 8.78925C6.58967 8.70333 6.55061 8.57835 6.57795 8.17999C6.63654 7.27392 7.04661 6.4069 7.72226 5.75468C8.43697 5.0595 9.32351 4.67676 10.2257 4.66895C10.5264 4.66505 10.5577 4.67286 10.6436 4.76659Z" fill="#01A8C3"/>
<path d="M1.28986 8.99655V10.6291L1.49294 10.5783C1.80538 10.4963 2.18031 10.5119 2.55133 10.6251C2.61382 10.6447 2.61772 10.5509 2.61772 9.00437V7.36796L2.47322 7.40702C2.28576 7.4617 1.62963 7.4617 1.43826 7.40702L1.28986 7.36796V8.99655Z" fill="#01A8C3"/>
<path d="M1.35614 11.2813C1.12181 11.3438 0.907004 11.5156 0.793745 11.7343L0.703918 11.9023V13.9761V16.0499L0.821083 16.253C0.907004 16.4053 0.992925 16.4912 1.14524 16.5772C1.34442 16.6943 1.35223 16.6943 1.93415 16.6943C2.41843 16.6943 2.54731 16.6787 2.67619 16.6201C2.87928 16.5264 3.01988 16.3897 3.12142 16.1944C3.20343 16.0382 3.20343 15.9835 3.20343 13.9683V11.9023L3.11361 11.7304C2.99644 11.5078 2.7504 11.3243 2.50045 11.2696C2.23487 11.211 1.59047 11.2188 1.35614 11.2813Z" fill="#01A8C3"/>
</svg>
