<svg width="24" height="25" viewBox="0 0 24 25" fill="none" xmlns="http://www.w3.org/2000/svg">
<path d="M10.8595 0.694559C7.10478 1.08412 3.81468 3.12576 1.81527 6.30792C-1.01957 10.8136 -0.489211 16.7696 3.09189 20.6933C5.07721 22.8664 7.55535 24.1665 10.531 24.5889C11.0848 24.6687 12.9293 24.664 13.5113 24.5889C16.2288 24.2134 18.66 23.0072 20.5093 21.1204C21.1194 20.5009 21.2461 20.3554 21.6498 19.8203C22.8513 18.2199 23.6351 16.2674 23.9402 14.1366C24.0199 13.5828 24.0199 11.7335 23.9402 11.1797C23.7383 9.7576 23.3676 8.54669 22.7809 7.35925C22.152 6.10141 21.5136 5.20496 20.5139 4.19587C18.66 2.31849 16.3415 1.14982 13.6756 0.755573C13.0983 0.671093 11.4321 0.633545 10.8595 0.694559ZM14.8396 5.80572C16.1913 5.89489 16.9798 6.19058 17.7026 6.87582C18.4348 7.57515 18.7727 8.43405 18.8619 9.828C18.9229 10.7432 18.9229 14.5496 18.8619 15.4789C18.7727 16.8869 18.4254 17.7552 17.6744 18.4639C16.9751 19.1257 16.1678 19.4261 14.8396 19.5106C13.9384 19.5669 10.0804 19.5669 9.17928 19.5106C7.82757 19.4214 7.03907 19.1257 6.31628 18.4405C5.5841 17.7411 5.24618 16.8822 5.157 15.4883C5.09599 14.5778 5.10068 10.6634 5.157 9.79984C5.25087 8.42466 5.5888 7.57045 6.31628 6.87582C7.01091 6.21874 7.84165 5.8902 9.04786 5.81041C9.84106 5.75409 14.0276 5.75409 14.8396 5.80572Z" fill="#3D3D3D"/>
<path d="M10.2964 7.03046C8.88832 7.05862 8.65834 7.0727 8.34388 7.15719C7.34418 7.42941 6.77627 7.99262 6.50874 8.99232C6.42426 9.30678 6.41018 9.54146 6.38202 11.0058C6.36794 11.9116 6.36794 13.4042 6.38202 14.3147C6.41018 15.7743 6.42426 16.009 6.50874 16.3235C6.77627 17.3232 7.34418 17.8911 8.34388 18.1586C8.65834 18.2431 8.89301 18.2572 10.3574 18.2853C11.2632 18.2994 12.7557 18.2994 13.6662 18.2853C15.1353 18.2572 15.3606 18.2431 15.6844 18.1539C16.656 17.8958 17.2473 17.3091 17.5102 16.3329C17.5947 16.0043 17.6087 15.7884 17.6369 14.31C17.651 13.4042 17.651 11.9116 17.6369 11.0011C17.6087 9.53676 17.5947 9.30678 17.5102 8.99232C17.2426 7.99262 16.67 7.42002 15.675 7.15719C15.3089 7.06332 15.2151 7.05862 12.5727 7.01169C12.1972 7.007 11.174 7.01638 10.2964 7.03046ZM15.9848 8.20382C16.1632 8.26953 16.3744 8.47135 16.4495 8.65439C16.6794 9.18475 16.2711 9.7949 15.6938 9.7949C15.2526 9.7949 14.8725 9.41943 14.8725 8.97824C14.8725 8.41034 15.4544 8.00201 15.9848 8.20382ZM13.15 9.31148C13.7179 9.5086 14.0323 9.71042 14.4782 10.1469C14.91 10.574 15.1775 10.9964 15.3747 11.5549C15.4967 11.9023 15.5061 11.982 15.5061 12.6579C15.5061 13.3338 15.4967 13.4135 15.3747 13.7609C15.1869 14.3006 14.9053 14.7418 14.5017 15.1501C14.0933 15.5538 13.6522 15.8354 13.1124 16.0231C12.7651 16.1451 12.6853 16.1545 12.0095 16.1545C11.3336 16.1545 11.2538 16.1451 10.9065 16.0231C10.348 15.826 9.92557 15.5584 9.49847 15.1267C9.06198 14.6808 8.86485 14.3663 8.65834 13.7984C8.51754 13.3995 8.51284 13.3572 8.51284 12.6579C8.51754 11.9961 8.52692 11.8976 8.64426 11.5549C8.88832 10.8275 9.40929 10.1422 10.0382 9.7245C10.7235 9.26924 11.2163 9.13313 12.1033 9.1519C12.6665 9.16598 12.7792 9.18475 13.15 9.31148Z" fill="#3D3D3D"/>
<path d="M11.4556 10.4337C10.2213 10.7622 9.47032 12.0013 9.78009 13.1934C10.0054 14.0523 10.6155 14.6625 11.4791 14.8877C13.0937 15.3102 14.6613 13.7425 14.2389 12.128C13.9103 10.8749 12.6572 10.1098 11.4556 10.4337Z" fill="#3D3D3D"/>
</svg>
