<svg width="19" height="17" viewBox="0 0 19 17" fill="none" xmlns="http://www.w3.org/2000/svg">
<path d="M4.88135 16.9219C5.19678 16.9219 5.4209 16.7476 5.79443 16.4238L8.71631 13.8589H14.6099C16.8594 13.8589 18.1377 12.5557 18.1377 10.3394V3.66553C18.1377 1.44092 16.8594 0.137695 14.6099 0.137695H3.64453C1.39502 0.137695 0.116699 1.43262 0.116699 3.66553V10.3394C0.116699 12.564 1.39502 13.8589 3.64453 13.8589H4.17578V16.1001C4.17578 16.5981 4.43311 16.9219 4.88135 16.9219ZM5.13867 15.7598V13.3193C5.13867 12.9707 4.99756 12.8379 4.64893 12.8379H3.65283C2.00928 12.8379 1.146 11.9248 1.146 10.3311V3.67383C1.146 2.07178 2.00928 1.16699 3.65283 1.16699H14.6016C16.2285 1.16699 17.1084 2.07178 17.1084 3.67383V10.3311C17.1084 11.9248 16.2285 12.8379 14.6016 12.8379H8.70801C8.33447 12.8379 8.14355 12.896 7.86963 13.1699L5.13867 15.7598ZM6.40869 10.8789C6.64111 10.8789 6.79883 10.771 6.89844 10.4639L7.5874 8.53809H10.6587L11.3477 10.4639C11.4556 10.7627 11.6133 10.8789 11.854 10.8789C12.1362 10.8789 12.3354 10.6963 12.3354 10.439C12.3354 10.3311 12.3105 10.248 12.2607 10.1069L9.83691 3.63232C9.7124 3.30029 9.47168 3.12598 9.12305 3.12598C8.77441 3.12598 8.54199 3.30029 8.41748 3.63232L5.99365 10.1069C5.94385 10.248 5.91895 10.3311 5.91895 10.4307C5.91895 10.7046 6.10986 10.8789 6.40869 10.8789ZM7.86133 7.73291L9.08984 4.29639H9.16455L10.3848 7.73291H7.86133Z" fill="#F70759"/>
</svg>
