<svg xmlns="http://www.w3.org/2000/svg" viewBox="0 0 580.22 205.96"><defs><style>.cls-1,.cls-3{fill:#009b72;}.cls-2{fill:#032974;}.cls-3{fill-rule:evenodd;}</style></defs><g id="Layer_2" data-name="Layer 2"><g id="Layer_1-2" data-name="Layer 1"><path class="cls-1" d="M313.74,203.05V168.93h5.09l16.75,25.82-.24-25.82h4.9v34.12h-4.75l-17.14-26.59.34,26.59Z"/><path class="cls-1" d="M346.19,203.05V168.93h17.72v4.56H351.14v10.17h12.77v4.47H351.14v10.22h12.77v4.7Z"/><path class="cls-1" d="M370,203.05V168.93h4.94v29.42h11.18v4.7Z"/><path class="cls-1" d="M403.8,203.05V168.93h7.34l9.89,26.4,9.89-26.4h7.25v34.12h-4.66l.34-29.61-11.09,29.61h-3.5l-11-29.61.33,29.61Z"/><path class="cls-1" d="M448,173.2a17.31,17.31,0,0,1,24.29.05,17.08,17.08,0,0,1,5.23,12.52A17.31,17.31,0,0,1,473,198a17.12,17.12,0,0,1-13,5.76,16.7,16.7,0,0,1-12.91-5.86,17.78,17.78,0,0,1-4.41-12.1A17.35,17.35,0,0,1,448,173.2ZM451.28,195a12.28,12.28,0,0,0,8.73,3.84c7.06,0,12.44-5.66,12.44-13.1a12.36,12.36,0,0,0-3.36-8.45,12,12,0,0,0-17.52-.53,13.34,13.34,0,0,0-.29,18.24Z"/><path class="cls-1" d="M482,203.05V168.93h5.09l16.75,25.82-.24-25.82h4.9v34.12h-4.75l-17.14-26.59.34,26.59Z"/><path class="cls-1" d="M514.21,203.05V168.93h11c10.36,0,17.13,7,17.13,17.18A16.56,16.56,0,0,1,535.48,200c-3.65,2.64-7.15,3-11.67,3ZM525,198.49c7.68,0,12.33-4.8,12.33-12.33,0-7.73-4.8-12.58-13.25-12.58H519v24.91Z"/><path class="cls-1" d="M550.7,173.2a17.31,17.31,0,0,1,24.29.05,17.12,17.12,0,0,1,5.23,12.52,17.36,17.36,0,0,1-4.51,12.2,17.15,17.15,0,0,1-13,5.76,16.67,16.67,0,0,1-12.91-5.86,17.79,17.79,0,0,1-4.42-12.1A17.32,17.32,0,0,1,550.7,173.2ZM554,195a12.29,12.29,0,0,0,8.74,3.84c7,0,12.43-5.66,12.43-13.1a12.32,12.32,0,0,0-3.36-8.45,12,12,0,0,0-17.52-.53A13.37,13.37,0,0,0,554,195Z"/><path class="cls-1" d="M23.25,206a347.15,347.15,0,0,1,162-31.71c31.76,1.41,96.11,15.3,107.71,23.72a611.16,611.16,0,0,0-136-12.11A540.8,540.8,0,0,0,23.25,206Z"/><path class="cls-2" d="M379.41,32.37c-12,1.48-23.28,5.08-35.77,9.3-20.8,7-41.26,13.55-63,16.7-17.21,2.5-32.74,3-47.48,1.38A199.92,199.92,0,0,1,200,53.36a197,197,0,0,1-25.66-9.22c20.33,14.33,41,24,62.7,29.47a151.84,151.84,0,0,0,43.5,4.15c16.72-.66,34.24-4.42,53.57-11.49,10.81-4,21.77-8.17,33.51-12.87a187.09,187.09,0,0,1,41.95-11.58c12-1.79,22.94-1.55,33.17.77a104.41,104.41,0,0,0-23.46-8.48A112,112,0,0,0,379.41,32.37Z"/><path class="cls-2" d="M118.2,28.4a3.59,3.59,0,0,1,3.5-2.82,10.67,10.67,0,0,1,5.45,1.27,13.23,13.23,0,0,1,4.58,3.84,4.56,4.56,0,0,1,.74,4.84q-7.41,16.83-15.28,33.84T101.59,102q-7.74,15.61-15.07,29.2T73,154.88a148.67,148.67,0,0,1-11,16q-4.85,5.91-7.67,6.05a12.61,12.61,0,0,1-6.12-1,19.13,19.13,0,0,1-5.58-3.63,21.34,21.34,0,0,1-4.31-5.58,18.51,18.51,0,0,1-2.15-6.86c-.18-1.8.24-4.78,1.28-9s2.35-9.06,4-14.67,3.34-11.68,5.18-18.23S50,104.92,51.33,98.37q2-9.28,3.43-18c1-5.83,1.57-11,1.89-15.61a44.37,44.37,0,0,0-.34-11Q55.5,49.53,53,49.26q-3.11-.27-7,2.35a43.88,43.88,0,0,0-8,7.2,98,98,0,0,0-8.21,10.63A123.26,123.26,0,0,0,22.2,82.15a127.72,127.72,0,0,0-6,13.46,64.8,64.8,0,0,0-3.5,12.71A3,3,0,0,1,10,111a8.63,8.63,0,0,1-4.78-.74,10,10,0,0,1-4.1-3.43,5.93,5.93,0,0,1-.74-5.45A117.67,117.67,0,0,1,5.92,86.86a139.25,139.25,0,0,1,7.67-14.39,120.8,120.8,0,0,1,9.22-13.06A69,69,0,0,1,33.17,49a42.73,42.73,0,0,1,11-6.53,22.78,22.78,0,0,1,11.17-1.55,12.4,12.4,0,0,1,9.55,5.79,28.73,28.73,0,0,1,3.77,12.78A84.31,84.31,0,0,1,68.15,77q-1.22,9.76-3.43,20.18t-5,20.66q-2.76,10.22-5.11,19t-3.77,15.2q-1.41,6.47-1,9.15c.27,2,1.23,2.36,2.9,1.14s3.78-3.63,6.39-7.26,5.58-8.3,8.94-14S75,129,78.65,122s7.42-14.55,11.23-22.54,7.47-16,11-24.22S107.6,59,110.6,51,116.14,35.49,118.2,28.4Z"/><path class="cls-2" d="M139.6,123a2,2,0,0,1,1.88-.14,4.29,4.29,0,0,1,1.62,1.22,3.23,3.23,0,0,1,.74,1.88,2.39,2.39,0,0,1-.74,1.88,56.77,56.77,0,0,0-4,4.24q-2.56,2.9-5.92,6.19t-7.27,6.66a50.23,50.23,0,0,1-8.07,5.72,32.71,32.71,0,0,1-8.27,3.36,12.67,12.67,0,0,1-7.88-.47,7.69,7.69,0,0,1-5-5.58,20.73,20.73,0,0,1,0-9.42,43.34,43.34,0,0,1,4-11.1,66,66,0,0,1,7-10.9,3.89,3.89,0,0,1,3.63-1.55,8.72,8.72,0,0,1,4.11,1.42,6.88,6.88,0,0,1,2.62,3.16,3.62,3.62,0,0,1-.67,3.83,65.86,65.86,0,0,0-5.59,8.41,35,35,0,0,0-2.89,6.6,11.71,11.71,0,0,0-.61,4.44c.14,1.12.61,1.72,1.42,1.81q1.74.27,5.18-1.48a55,55,0,0,0,7.6-4.84q4.17-3.09,8.68-7.07A106.09,106.09,0,0,0,139.6,123Zm-7-24.62c-.63.8-1.55,1.95-2.76,3.43a43.85,43.85,0,0,1-4,4.24,23.85,23.85,0,0,1-4.24,3.23c-1.39.8-2.53.94-3.43.4s-1.41-1.77-1.27-3.43a21.27,21.27,0,0,1,1.21-5.38,41.36,41.36,0,0,1,2.42-5.59,38.25,38.25,0,0,1,2.35-4,4,4,0,0,1,3.57-1.62,8,8,0,0,1,4.1,1.41,7.54,7.54,0,0,1,2.76,3.3A3.74,3.74,0,0,1,132.6,98.37Z"/><path class="cls-2" d="M171.62,125.68q-3.76,3.63-8.61,8.95t-10,10.09a50.72,50.72,0,0,1-10.49,7.6,13,13,0,0,1-10.16,1.35,6,6,0,0,1-4.24-3.77,12.64,12.64,0,0,1-.27-6.66,30.27,30.27,0,0,1,3.1-8.28,63.08,63.08,0,0,1,5.72-8.81,58.83,58.83,0,0,1,7.6-8.14,49.59,49.59,0,0,1,8.81-6.32c3.59-2.07,6.93-2.69,10-1.89a13.82,13.82,0,0,1,7.87,5.92c.62-.62,1.39-1.43,2.28-2.42s1.82-2,2.76-3.09,1.89-2.11,2.83-3.1a20.54,20.54,0,0,1,2.49-2.28,5.43,5.43,0,0,1,3.76-1.42,6.22,6.22,0,0,1,3.44,1.08,4.89,4.89,0,0,1,1.88,2.89,5.44,5.44,0,0,1-.74,4Q182.26,125,179.89,132t-.33,8.08q2,1.08,8.34-3.5a174.15,174.15,0,0,0,16.28-14,3.21,3.21,0,0,1,2.29-1,2.14,2.14,0,0,1,1.68.87,3,3,0,0,1,.47,2.15,5.68,5.68,0,0,1-1.48,3q-12.64,14.81-21,19.72T172,149.23q-3.63-1.89-4.17-7.27T171.62,125.68Zm-25.16,13a60.7,60.7,0,0,0,5.18-4.17q2.9-2.55,5.65-5.25t4.91-5.11a24.7,24.7,0,0,0,2.83-3.63c.35-.63.18-1.17-.54-1.62a4.74,4.74,0,0,0-3.43-.13,20.12,20.12,0,0,0-5.92,2.82,41.33,41.33,0,0,0-8,7.27c-.63.72-1.41,1.68-2.35,2.89a43.17,43.17,0,0,0-2.56,3.64,29.23,29.23,0,0,0-1.88,3.43,3.84,3.84,0,0,0-.54,2.35c.13.49.72.59,1.75.27A21.48,21.48,0,0,0,146.46,138.73Z"/><path class="cls-2" d="M261.77,102.94c-.27,1-.86,2.6-1.75,4.85s-1.93,4.84-3.1,7.8-2.46,6.08-3.9,9.35-2.82,6.44-4.17,9.49q3.77-2.56,9.62-6.26t11.91-7.47a2.9,2.9,0,0,1,2.62-.33A3.66,3.66,0,0,1,275,122a3.79,3.79,0,0,1,.47,2.56,3.41,3.41,0,0,1-1.54,2.35c-1.26.81-2.88,1.88-4.85,3.23s-4.08,2.76-6.32,4.24l-6.86,4.51L249.46,143c-1.93,1.25-3.59,2.38-5,3.36s-2.22,1.62-2.49,1.88q-4.31,7.82-8.34,14.87t-8.14,13.39a120.16,120.16,0,0,1-8.68,11.77A82,82,0,0,1,207,198.2q-7,5.79-13.12,5.92t-9.42-3.5q-3.3-3.63-2.62-10T189,176.94a104.83,104.83,0,0,1,12.71-11.7q7.2-5.66,13.79-10.09t11.37-7.4a51.27,51.27,0,0,0,5.45-3.64q1.62-2.82,3.36-6.32c1.17-2.33,2.29-4.69,3.37-7.06s2.11-4.67,3.09-6.87,1.8-4,2.43-5.58a161.42,161.42,0,0,1-11.44,13.39,103.48,103.48,0,0,1-13.19,11.77q-2.41,1.76-5,3.3a39.1,39.1,0,0,1-5.32,2.62,24.24,24.24,0,0,1-5.24,1.48,9.75,9.75,0,0,1-4.85-.4,5.77,5.77,0,0,1-4.17-3.77,12.55,12.55,0,0,1-.07-6.73,32.57,32.57,0,0,1,3.37-8.41,62.85,62.85,0,0,1,6.05-8.94,67.81,67.81,0,0,1,8.07-8.41,51,51,0,0,1,9.49-6.66q5.65-3,10.09-1.69a13.52,13.52,0,0,1,7.54,6.13,34.7,34.7,0,0,0,2.28-2.69c1-1.26,2-2.6,3.1-4l3.16-4.24A29.25,29.25,0,0,1,251,97.83a4.64,4.64,0,0,1,3.43-1.35,8.37,8.37,0,0,1,3.91,1,8,8,0,0,1,2.89,2.42A3.27,3.27,0,0,1,261.77,102.94ZM224.9,158.11q-3,2-6.26,4.44t-6.66,5q-3.36,2.56-6.39,5l-5.45,4.51a38.6,38.6,0,0,0-7.6,8.68c-1.48,2.55-2.1,4.44-1.88,5.65s1.21,1.59,3,1.14,4.1-2,7.06-4.71q3.36-3.09,6.73-6.86t6.53-7.67q3.15-3.9,6-7.8T224.9,158.11Zm-10.63-22.74a55.82,55.82,0,0,0,5.45-4.24q3-2.62,5.92-5.45c1.93-1.88,3.65-3.63,5.18-5.25a21.17,21.17,0,0,0,3-3.63,1.18,1.18,0,0,0-.47-1.68c-.67-.49-1.82-.54-3.43-.14a23.12,23.12,0,0,0-6.12,2.9,39.86,39.86,0,0,0-8.28,7.4,33,33,0,0,0-2.49,2.89q-1.41,1.82-2.69,3.77a37.24,37.24,0,0,0-2.08,3.56,4,4,0,0,0-.61,2.42c.14.54.7.66,1.68.34A23.19,23.19,0,0,0,214.27,135.37Z"/><path class="cls-2" d="M326.08,102.94a51.53,51.53,0,0,1-1.75,4.85q-1.35,3.36-3.09,7.8t-3.9,9.35q-2.16,4.92-4.18,9.49,3.76-2.56,9.62-6.26t11.91-7.47a2.92,2.92,0,0,1,2.63-.33,3.66,3.66,0,0,1,1.95,1.61,3.91,3.91,0,0,1,.47,2.56,3.43,3.43,0,0,1-1.55,2.35c-1.26.81-2.87,1.88-4.84,3.23s-4.09,2.76-6.33,4.24l-6.86,4.51L313.77,143c-1.93,1.25-3.59,2.38-5,3.36s-2.22,1.62-2.49,1.88Q302,156.1,298,163.15t-8.14,13.39a120.16,120.16,0,0,1-8.68,11.77,81.24,81.24,0,0,1-9.82,9.89q-7,5.79-13.12,5.92t-9.42-3.5q-3.28-3.63-2.62-10t7.13-13.66A104.94,104.94,0,0,1,266,165.24q7.19-5.66,13.79-10.09t11.37-7.4a51.27,51.27,0,0,0,5.45-3.64q1.61-2.82,3.36-6.32c1.16-2.33,2.29-4.69,3.36-7.06s2.11-4.67,3.1-6.87,1.79-4,2.42-5.58a159.52,159.52,0,0,1-11.44,13.39,103.41,103.41,0,0,1-13.18,11.77q-2.43,1.76-5.05,3.3a39.57,39.57,0,0,1-5.31,2.62,24.48,24.48,0,0,1-5.25,1.48,9.7,9.7,0,0,1-4.84-.4,5.77,5.77,0,0,1-4.18-3.77,12.66,12.66,0,0,1-.06-6.73,32.16,32.16,0,0,1,3.36-8.41,63,63,0,0,1,6.06-8.94,66.38,66.38,0,0,1,8.07-8.41,50.56,50.56,0,0,1,9.48-6.66q5.66-3,10.1-1.69a13.47,13.47,0,0,1,7.53,6.13,34.3,34.3,0,0,0,2.29-2.69c1-1.26,2-2.6,3.09-4s2.13-2.85,3.16-4.24a29.14,29.14,0,0,1,2.63-3.16,4.63,4.63,0,0,1,3.43-1.35,8.33,8.33,0,0,1,3.9,1,8,8,0,0,1,2.89,2.42A3.24,3.24,0,0,1,326.08,102.94Zm-36.86,55.17c-2,1.34-4.06,2.82-6.26,4.44s-4.42,3.27-6.66,5-4.37,3.39-6.39,5-3.84,3.16-5.45,4.51a38.35,38.35,0,0,0-7.6,8.68c-1.48,2.55-2.11,4.44-1.89,5.65s1.21,1.59,3,1.14,4.11-2,7.07-4.71q3.36-3.09,6.72-6.86t6.53-7.67q3.17-3.9,6-7.8T289.22,158.11Zm-10.63-22.74a55.82,55.82,0,0,0,5.44-4.24c2-1.75,4-3.57,5.93-5.45s3.65-3.63,5.18-5.25a21.69,21.69,0,0,0,3-3.63,1.18,1.18,0,0,0-.48-1.68c-.67-.49-1.81-.54-3.43-.14a23.41,23.41,0,0,0-6.12,2.9,39.6,39.6,0,0,0-8.27,7.4,31.37,31.37,0,0,0-2.49,2.89q-1.41,1.82-2.69,3.77a35.49,35.49,0,0,0-2.09,3.56,3.86,3.86,0,0,0-.6,2.42c.13.54.69.66,1.68.34A23.69,23.69,0,0,0,278.59,135.37Z"/><path class="cls-2" d="M368.87,123a2,2,0,0,1,1.88-.14,4.29,4.29,0,0,1,1.62,1.22,3.23,3.23,0,0,1,.74,1.88,2.39,2.39,0,0,1-.74,1.88,56.77,56.77,0,0,0-4,4.24q-2.56,2.9-5.92,6.19t-7.27,6.66a50.23,50.23,0,0,1-8.07,5.72A32.71,32.71,0,0,1,338.8,154a12.64,12.64,0,0,1-7.87-.47,7.71,7.71,0,0,1-5-5.58,20.73,20.73,0,0,1,0-9.42,43.72,43.72,0,0,1,4-11.1,66,66,0,0,1,7-10.9,3.9,3.9,0,0,1,3.63-1.55,8.68,8.68,0,0,1,4.11,1.42,6.88,6.88,0,0,1,2.62,3.16,3.62,3.62,0,0,1-.67,3.83,65.86,65.86,0,0,0-5.59,8.41,35,35,0,0,0-2.89,6.6,11.47,11.47,0,0,0-.6,4.44c.13,1.12.6,1.72,1.41,1.81q1.74.27,5.18-1.48a54.36,54.36,0,0,0,7.6-4.84q4.17-3.09,8.68-7.07A104.42,104.42,0,0,0,368.87,123Zm-7-24.62c-.63.8-1.55,1.95-2.76,3.43a43.85,43.85,0,0,1-4,4.24,23.8,23.8,0,0,1-4.23,3.23c-1.4.8-2.54.94-3.44.4s-1.41-1.77-1.27-3.43a21.27,21.27,0,0,1,1.21-5.38,41.36,41.36,0,0,1,2.42-5.59,38.25,38.25,0,0,1,2.35-4,4,4,0,0,1,3.57-1.62,8,8,0,0,1,4.1,1.41,7.54,7.54,0,0,1,2.76,3.3A3.74,3.74,0,0,1,361.87,98.37Z"/><path class="cls-2" d="M400.89,125.68q-3.76,3.63-8.61,8.95t-10,10.09a51,51,0,0,1-10.5,7.6,13,13,0,0,1-10.16,1.35,6,6,0,0,1-4.24-3.77,12.55,12.55,0,0,1-.26-6.66,29.9,29.9,0,0,1,3.09-8.28,63.08,63.08,0,0,1,5.72-8.81,58.83,58.83,0,0,1,7.6-8.14,50,50,0,0,1,8.81-6.32c3.59-2.07,6.93-2.69,10-1.89a13.82,13.82,0,0,1,7.87,5.92c.62-.62,1.39-1.43,2.29-2.42s1.81-2,2.75-3.09,1.89-2.11,2.83-3.1a20.54,20.54,0,0,1,2.49-2.28,5.44,5.44,0,0,1,3.77-1.42,6.18,6.18,0,0,1,3.43,1.08,4.85,4.85,0,0,1,1.88,2.89,5.44,5.44,0,0,1-.74,4Q411.53,125,409.17,132t-.34,8.08q2,1.08,8.34-3.5a172.86,172.86,0,0,0,16.28-14,3.21,3.21,0,0,1,2.29-1,2.13,2.13,0,0,1,1.68.87,3,3,0,0,1,.47,2.15,5.68,5.68,0,0,1-1.48,3q-12.65,14.81-21,19.72t-14.12,1.95q-3.65-1.89-4.18-7.27T400.89,125.68Zm-25.16,13a60.7,60.7,0,0,0,5.18-4.17q2.89-2.55,5.65-5.25t4.91-5.11a24,24,0,0,0,2.83-3.63q.54-.94-.54-1.62a4.74,4.74,0,0,0-3.43-.13,20.12,20.12,0,0,0-5.92,2.82,41.33,41.33,0,0,0-8,7.27c-.63.72-1.41,1.68-2.35,2.89a43.17,43.17,0,0,0-2.56,3.64,29.23,29.23,0,0,0-1.88,3.43,3.91,3.91,0,0,0-.54,2.35c.13.49.72.59,1.75.27A21.48,21.48,0,0,0,375.73,138.73Z"/><path class="cls-2" d="M464.94,117.47a25.71,25.71,0,0,0-7.27,5.52q-4.17,4.17-8.68,9.42T440,143.24q-4.44,5.58-7.93,9.89a7.7,7.7,0,0,1-4.71,3.09,7.17,7.17,0,0,1-4.51-.6,6.61,6.61,0,0,1-3-3.16,6,6,0,0,1-.2-4.58,107.91,107.91,0,0,1,5-11q3.44-6.66,7.4-13.19T439.71,112a39.06,39.06,0,0,1,5.45-6.79,3.65,3.65,0,0,1,3.83-.94,8.36,8.36,0,0,1,3.63,2.35,7.6,7.6,0,0,1,2,3.7,2.94,2.94,0,0,1-.95,3.1,29.51,29.51,0,0,0-4,3.9q-2.22,2.55-4.57,5.78t-4.71,6.73q-2.36,3.5-4.24,6.59c-1.25,2.07-2.35,3.86-3.29,5.39s-1.55,2.55-1.82,3.09q1.88-2.14,5.18-6.39c2.2-2.83,4.62-5.87,7.27-9.15s5.49-6.53,8.54-9.75a85,85,0,0,1,9-8.35,32.15,32.15,0,0,1,8.62-5,8.35,8.35,0,0,1,7.4.33,4.51,4.51,0,0,1,2.69,4.58,21.23,21.23,0,0,1-1.69,6.32q-1.41,3.38-3,6.73A10.15,10.15,0,0,0,474,130c.09.62.63.87,1.61.74a12.37,12.37,0,0,0,3.64-1.28,36,36,0,0,0,4.84-3,44,44,0,0,0,5.25-4.51,2.14,2.14,0,0,1,1.68-.74,1.94,1.94,0,0,1,1.41.74,2.25,2.25,0,0,1,.41,1.75,4.15,4.15,0,0,1-1.35,2.29q-7.94,7.8-14.93,10.63T465.34,138q-4.17-1.41-4.71-6.73T464.94,117.47Z"/><path class="cls-2" d="M497,143.44q1.47,1.08,4.44.47a32.67,32.67,0,0,0,6.73-2.29,82.91,82.91,0,0,0,7.93-4.1q4.17-2.42,8.14-5.11t7.34-5.45q3.36-2.76,5.65-4.91a1.77,1.77,0,0,1,1.88-.27,3.14,3.14,0,0,1,1.68,1.48,3.67,3.67,0,0,1,.41,2.42,3.63,3.63,0,0,1-2.09,2.42q-3,2.7-6.93,6.12T523.67,141q-4.51,3.3-9.35,6.19a70.33,70.33,0,0,1-9.49,4.78,36,36,0,0,1-8.95,2.42,14,14,0,0,1-7.8-1.08,10,10,0,0,1-5.38-5,14,14,0,0,1-1-7.47,30.4,30.4,0,0,1,2.55-8.88,63,63,0,0,1,5.12-9.28,59.09,59.09,0,0,1,6.86-8.55,58.47,58.47,0,0,1,7.73-6.79,22.91,22.91,0,0,1,9.76-4.24c3-.4,5.4,0,7.2,1.28a7.31,7.31,0,0,1,3,5.85q.27,4-2.83,9.35a38.83,38.83,0,0,1-4.91,6.26,37.55,37.55,0,0,1-6.19,5.25,27.67,27.67,0,0,1-6.73,3.36,12.81,12.81,0,0,1-6.39.6,9.76,9.76,0,0,0-.8,1.82,8.38,8.38,0,0,0-.47,2.42,9,9,0,0,0,.2,2.49A2.52,2.52,0,0,0,497,143.44Zm2.42-13.72c1.88-.18,4.22-1.3,7-3.37a25.55,25.55,0,0,0,7.26-9.15,5.36,5.36,0,0,0,.94-2.69c-.09-.44-.42-.56-1-.33a10.76,10.76,0,0,0-2.42,1.54,28.22,28.22,0,0,0-3.16,3,81.19,81.19,0,0,0-5.38,6.26A28.85,28.85,0,0,0,499.38,129.72Z"/><path class="cls-3" d="M219.38,49.2c26.05-1.46,60.95-7.37,85.75-21.82L276.1,11l8.55-4.15,47.92,6L357.37.63c11.07-3.39,16.68,7.65,5.81,13.46-.45.24-20.32,11.58-20.32,11.58l-22.78,39.2-7.78,3.55,2.79-30C278.56,54,231.33,54.16,219.38,49.2"/></g></g></svg>