<svg width="38" height="38" viewBox="0 0 38 38" fill="none" xmlns="http://www.w3.org/2000/svg">
<path d="M7.13661 0.106445C6.86941 0.158401 6.37211 0.343964 6.02325 0.514675C5.51853 0.767036 5.26617 0.952599 4.75403 1.46474C3.82623 2.40738 3.35862 3.44651 3.32893 4.64894C3.31409 5.24273 3.46996 5.56931 3.89303 5.84394L4.16766 6.02208V6.80885C4.16766 8.4195 4.3458 9.20627 4.91732 10.0821L5.21422 10.5423L5.05835 10.713C4.90248 10.8837 4.85794 10.8837 3.2176 10.9134C1.54756 10.9357 1.53272 10.9357 1.10964 11.1435C0.634613 11.3736 0.293184 11.7596 0.122469 12.2346C-0.040823 12.7022 -0.040823 17.4006 0.122469 17.883C0.278339 18.3432 0.62719 18.7366 1.07996 18.9667C1.41396 19.1448 1.56241 19.1671 2.40856 19.1968L3.3512 19.2265V20.8C3.3512 22.4997 3.61841 27.0719 3.73716 27.3911C3.84108 27.6657 4.19735 27.8067 4.44971 27.6657C4.55363 27.6063 4.67238 27.5024 4.71692 27.4356C4.78372 27.3243 4.73918 26.2406 4.56105 23.8283L4.51651 23.2197H6.86941C9.08127 23.2197 9.2223 23.2271 9.18519 23.3459C9.13323 23.5166 7.21083 33.5962 7.21083 33.6927C7.21083 33.7743 5.30328 33.7892 5.25875 33.7075C5.23648 33.6704 5.16968 32.7426 5.09546 31.6441C4.95443 29.3877 4.92474 29.2912 4.44229 29.2467C4.07117 29.217 3.87077 29.4248 3.87077 29.8479C3.87077 30.0186 3.93757 31.0949 4.01921 32.2379C4.10086 33.3809 4.16766 34.9693 4.16766 35.7635C4.16766 37.3964 4.21962 37.6043 4.69465 37.8566C4.92474 37.9754 5.16968 37.9902 7.47804 37.9902C9.9868 37.9902 10.0091 37.9902 10.2614 37.8195C10.6845 37.5375 10.7884 37.248 10.7513 36.4538C10.7216 35.9342 10.6697 35.667 10.5286 35.3553C10.1724 34.5908 9.37074 33.9376 8.60624 33.7966C8.45037 33.7669 8.32419 33.7372 8.32419 33.7298C8.32419 33.7224 8.7918 31.2804 9.36332 28.304C10.2614 23.6428 10.4396 22.5591 10.6845 20.5254C10.833 19.2339 10.9814 18.1725 11.0037 18.1725C11.0334 18.1725 11.2857 18.3061 11.5603 18.4694C12.4436 18.989 13.1116 19.1003 13.891 18.8702C14.1062 18.8034 14.4031 18.6772 14.5516 18.5807C14.8262 18.41 19.0273 14.7805 19.2351 14.543C19.3019 14.4687 19.4503 14.3871 19.5691 14.3574C20.1035 14.2238 20.2668 14.0308 21.5954 12.0194C22.3079 10.9357 22.9388 9.89655 22.9982 9.711C23.1244 9.29534 23.065 8.88711 22.8275 8.46404C22.6419 8.1523 21.7884 7.50655 20.9645 7.07605C20.3484 6.74947 19.532 6.88307 19.0792 7.38037C18.8194 7.66984 16.5185 11.1806 16.422 11.4404C16.3775 11.5592 16.3404 11.8041 16.3329 11.9971V12.3459L14.7371 13.5706C13.8539 14.2461 13.0819 14.825 13.0077 14.8547C12.9186 14.8992 12.6811 14.8027 12.1838 14.5207L11.4861 14.1273L11.4787 13.1995C11.4787 12.3162 11.4713 12.2494 11.2486 11.8115L11.0259 11.3439L11.3451 11.0322C11.5232 10.854 11.7756 10.4978 11.9092 10.2306L12.1467 9.75553L12.169 7.87767L12.1912 5.99981H14.0171C15.1973 5.99981 15.9395 5.97012 16.1325 5.91074C16.5111 5.7994 17.0306 5.33922 17.2236 4.93841C17.5576 4.24071 17.3424 3.23869 16.7412 2.74881C16.2587 2.348 15.9247 2.28862 14.0394 2.28862H12.3545L12.1393 1.98431C12.028 1.81359 11.7088 1.47958 11.449 1.23465C10.3357 0.217781 8.65077 -0.220139 7.13661 0.106445ZM8.9254 1.17527C10.2837 1.43505 11.501 2.56325 11.8498 3.88443C11.9092 4.12937 11.9612 4.44854 11.9612 4.6044V4.88646H8.17574H4.39033L4.43487 4.53018C4.5462 3.65434 4.85052 2.97148 5.42946 2.34058C6.33499 1.3534 7.60422 0.930328 8.9254 1.17527ZM15.895 3.51332C16.3329 3.74341 16.4072 4.30751 16.0509 4.6712L15.8356 4.88646H14.4625H13.0968L13.0448 4.38173C13.0151 4.10711 12.978 3.7731 12.9557 3.6395L12.9112 3.40198H14.2918C15.3829 3.40198 15.7243 3.42425 15.895 3.51332ZM6.76549 6.46742C6.76549 6.82369 6.7358 6.97214 6.63931 7.05379C6.44633 7.21708 5.36266 7.76633 5.31813 7.7218C5.26617 7.66242 5.2736 6.10372 5.33297 6.05177C5.35524 6.02208 5.68925 5.99981 6.07521 5.99981H6.76549V6.46742ZM11.0705 7.64758C11.0705 8.56053 11.0408 9.42152 10.9962 9.56255C10.8998 9.92624 10.5064 10.3716 10.1501 10.5349C9.89773 10.6462 9.65279 10.6759 8.76211 10.6759C7.50773 10.6759 7.13661 10.5943 6.54282 10.1712C6.15686 9.9114 5.57791 9.19885 5.57791 8.99845C5.57791 8.94649 5.93419 8.7164 6.37953 8.48631C7.63391 7.82571 7.87885 7.50655 7.87885 6.55649V5.99981H9.47466H11.0705V7.64758ZM21.1129 8.46404C21.8774 8.96134 22.063 9.19885 21.9146 9.47348C21.87 9.56255 21.343 10.3716 20.7492 11.2771L19.6582 12.9323L19.4874 12.5909C19.3984 12.4053 19.198 12.153 19.0569 12.0268C18.7675 11.7744 18.0698 11.5295 17.7803 11.5889L17.6022 11.6185L17.7654 11.3513C18.2702 10.5275 19.8511 8.17456 19.955 8.09292C20.1777 7.92963 20.393 7.99643 21.1129 8.46404ZM6.76549 11.5443C7.21826 11.7373 7.32959 11.7521 8.62109 11.7893L9.99422 11.8264L10.2021 12.2272C10.3505 12.5315 10.4025 12.7393 10.4025 13.0659V13.5038L9.77897 13.1624C9.10354 12.7913 8.86602 12.7764 8.6582 13.0733C8.36872 13.489 8.56171 13.771 9.54146 14.3054C9.8532 14.4762 10.1056 14.6469 10.1056 14.684C10.1056 14.7285 9.97196 15.0328 9.80866 15.3594L9.50435 15.9532L9.04416 15.686C8.00503 15.0848 7.84174 15.0254 7.58938 15.1219C7.32217 15.2332 7.20341 15.5227 7.2999 15.8122C7.35186 15.9681 7.64875 16.1759 8.60624 16.7326C9.2891 17.1334 9.86062 17.4674 9.87547 17.4822C9.91258 17.5119 9.46724 21.6016 9.39301 21.9356L9.36332 22.1064H6.90652H4.44971L4.48682 19.0038C4.51651 16.3689 4.5462 15.7602 4.67981 14.9215C4.85794 13.771 5.15484 12.4721 5.32555 12.1158C5.46658 11.819 6.08263 11.2474 6.20139 11.2994C6.24593 11.3217 6.49829 11.4256 6.76549 11.5443ZM4.07117 12.2123C4.0489 12.3311 3.95241 12.7839 3.84108 13.2366C3.59614 14.3054 3.44769 15.4856 3.38089 16.9255L3.32893 18.0983H2.59412C2.12651 18.0983 1.77024 18.0612 1.60694 17.9944C1.13933 17.794 1.12449 17.7123 1.12449 15.0403C1.12449 12.91 1.13933 12.6206 1.25067 12.4573C1.51788 12.0639 1.66632 12.0268 3.00977 12.0194L4.10828 12.0119L4.07117 12.2123ZM18.4038 12.9472C18.6042 13.1772 18.6116 13.489 18.4186 13.7413C18.144 14.0828 14.0394 17.6158 13.7574 17.742C13.4382 17.8904 13.0522 17.9127 12.696 17.7865C12.4362 17.6975 10.4767 16.5618 10.4767 16.5025C10.4767 16.4802 10.6251 16.1833 10.8107 15.8419L11.1521 15.2184L11.8721 15.6266C12.7034 16.1017 12.9409 16.1833 13.1858 16.0942C13.2823 16.0571 14.2547 15.3372 15.3532 14.491C16.4443 13.6449 17.4463 12.8878 17.565 12.8135C17.8471 12.6354 18.1737 12.6874 18.4038 12.9472ZM8.73984 35.0139C9.29652 35.2662 9.66022 35.8971 9.66022 36.6097V36.8769H7.47062H5.28102V35.8749V34.8728H6.86198C8.23512 34.8728 8.47264 34.8951 8.73984 35.0139Z" fill="#F70759"/>
<path d="M33.2634 0.0321407C32.1426 0.247389 31.1109 0.93767 30.4874 1.88031C30.1905 2.33308 30.235 2.68193 30.6136 2.84522C30.9327 2.97882 31.1851 2.86749 31.43 2.48152C31.7195 2.01391 32.1649 1.64279 32.7364 1.36817C33.1817 1.16034 33.2931 1.13807 33.9388 1.13807C34.6068 1.13807 34.6736 1.15292 35.208 1.4127C36.4847 2.05103 37.1378 3.4019 36.7964 4.73792C36.5366 5.77706 35.7944 6.99432 34.6217 8.31551C34.3025 8.67178 33.9908 8.96868 33.9314 8.96868C33.872 8.96868 33.5528 8.66436 33.2263 8.29324C32.1203 7.03886 31.4375 5.95519 31.1109 4.93833C31.0144 4.63401 30.8882 4.41134 30.8066 4.35938C30.5616 4.2332 30.2128 4.30743 30.0495 4.5301C29.901 4.7305 29.901 4.74535 30.0272 5.19811C30.3167 6.25951 31.1406 7.60296 32.4024 9.0429C33.1001 9.84452 33.4489 10.082 33.9314 10.082C34.4064 10.082 34.7553 9.84452 35.4455 9.06517C37.2566 7.00175 38.0953 5.27976 37.9914 3.81013C37.8727 2.14752 36.8113 0.759533 35.2229 0.202855C34.7924 0.0544081 33.6642 -0.0420828 33.2634 0.0321407Z" fill="#F70759"/>
<path d="M33.2708 2.34053C32.6176 2.57062 32.0758 3.34997 32.0758 4.06994C32.0758 5.0497 32.9516 5.92554 33.9314 5.92554C34.3767 5.92554 34.8963 5.70287 35.2303 5.36886C36.6257 3.97345 35.1412 1.67994 33.2708 2.34053ZM34.2951 3.43162C34.7924 3.6914 34.7775 4.49302 34.2654 4.72311C33.5899 5.02743 32.9368 4.34457 33.293 3.70625C33.486 3.3574 33.9165 3.23864 34.2951 3.43162Z" fill="#F70759"/>
<path d="M24.6163 3.29071C24.2675 3.63214 24.4901 4.21851 24.98 4.21851C25.2324 4.21851 25.5441 3.91419 25.5441 3.66183C25.5441 3.55791 25.4625 3.3872 25.3585 3.29071C25.2621 3.1868 25.0913 3.10515 24.9874 3.10515C24.8835 3.10515 24.7128 3.1868 24.6163 3.29071Z" fill="#F70759"/>
<path d="M26.8207 3.67651C26.6649 3.73589 26.5016 4.12927 26.5535 4.32968C26.7094 4.94573 27.6224 4.81955 27.6224 4.18123C27.6224 3.79527 27.1993 3.52064 26.8207 3.67651Z" fill="#F70759"/>
<path d="M22.8943 4.29259C22.7013 4.37424 22.5751 4.58949 22.5751 4.84185C22.5751 5.30946 23.2357 5.50986 23.5326 5.13874C23.6217 5.02741 23.6885 4.8938 23.6885 4.84185C23.6885 4.64887 23.5178 4.38166 23.3397 4.30002C23.1318 4.20352 23.117 4.20352 22.8943 4.29259Z" fill="#F70759"/>
<path d="M27.8896 5.63602C27.5036 5.94034 27.7189 6.59351 28.2162 6.59351C28.7135 6.59351 28.9287 5.94034 28.5427 5.63602C28.4314 5.54695 28.2904 5.48015 28.2162 5.48015C28.1419 5.48015 28.0009 5.54695 27.8896 5.63602Z" fill="#F70759"/>
<path d="M22.2189 6.49714C21.9368 6.73466 21.9962 7.25422 22.3154 7.39525C22.5826 7.52143 22.6716 7.50658 22.9017 7.32845C23.2877 7.02413 23.0724 6.37096 22.5826 6.37096C22.4638 6.37096 22.3005 6.43034 22.2189 6.49714Z" fill="#F70759"/>
<path d="M27.8896 7.87777C27.6446 8.12271 27.6372 8.44187 27.8673 8.65712C28.1122 8.88721 28.4611 8.87237 28.6541 8.62743C28.9435 8.25631 28.7728 7.82581 28.3126 7.73674C28.1197 7.69963 28.038 7.72932 27.8896 7.87777Z" fill="#F70759"/>
<path d="M28.0157 10.0078C27.6743 10.1489 27.5927 10.6239 27.8673 10.8837C28.1122 11.1138 28.4611 11.0989 28.6541 10.854C28.9064 10.5348 28.847 10.2157 28.5056 10.045C28.2681 9.91877 28.2458 9.91877 28.0157 10.0078Z" fill="#F70759"/>
<path d="M33.538 10.5126C33.3599 10.7056 33.3747 11.1435 33.5603 11.3068C33.9165 11.6259 34.4509 11.381 34.4509 10.8985C34.4509 10.7278 34.399 10.5794 34.3173 10.5051C34.1318 10.3344 33.6864 10.3419 33.538 10.5126Z" fill="#F70759"/>
<path d="M28.038 12.3311C27.7931 12.5761 27.7857 12.8952 28.0157 13.1105C28.2607 13.3406 28.6095 13.3257 28.8025 13.0808C29.092 12.7097 28.9213 12.2792 28.4611 12.1901C28.2681 12.153 28.1865 12.1827 28.038 12.3311Z" fill="#F70759"/>
<path d="M33.2782 12.7022C33.063 12.9323 33.063 13.2737 33.2856 13.4815C33.5825 13.7636 33.9982 13.6522 34.1392 13.2663C34.3396 12.7319 33.6642 12.2939 33.2782 12.7022Z" fill="#F70759"/>
<path d="M29.5819 13.875C29.4186 13.9567 29.2553 14.2313 29.2553 14.4169C29.2553 14.4688 29.3221 14.6024 29.4111 14.7138C29.7155 15.0997 30.3686 14.8845 30.3686 14.3946C30.3686 13.9864 29.9307 13.7043 29.5819 13.875Z" fill="#F70759"/>
<path d="M31.816 14.016C31.2519 14.2387 31.3929 15.0552 31.9941 15.0552C32.3207 15.0552 32.5211 14.8622 32.5211 14.543C32.5211 14.1348 32.1648 13.875 31.816 14.016Z" fill="#F70759"/>
</svg>
