<svg width="24" height="16" viewBox="0 0 24 16" fill="none" xmlns="http://www.w3.org/2000/svg">
<path d="M15.9048 8.12305C17.8472 8.12305 19.3994 6.42139 19.3994 4.30469C19.3994 2.23779 17.8389 0.577637 15.9048 0.577637C13.9873 0.577637 12.4102 2.25439 12.4185 4.31299C12.4351 6.42969 13.9707 8.12305 15.9048 8.12305ZM15.9048 7.15186C14.5601 7.15186 13.4478 5.91504 13.4478 4.31299C13.4395 2.77734 14.5518 1.55713 15.9048 1.55713C17.2661 1.55713 18.3701 2.76074 18.3701 4.30469C18.3701 5.89844 17.2661 7.15186 15.9048 7.15186ZM6.34229 8.23096C8.03564 8.23096 9.38037 6.75342 9.38037 4.88574C9.38037 3.08447 8.02734 1.62354 6.34229 1.62354C4.68213 1.62354 3.3042 3.10938 3.3125 4.89404C3.3291 6.75342 4.66553 8.23096 6.34229 8.23096ZM6.34229 7.26807C5.20508 7.26807 4.27539 6.23047 4.27539 4.89404C4.27539 3.62402 5.20508 2.58643 6.34229 2.58643C7.49609 2.58643 8.42578 3.60742 8.42578 4.88574C8.42578 6.23047 7.49609 7.26807 6.34229 7.26807ZM1.62744 15.7349H8.46729C8.15186 15.5605 7.89453 15.1787 7.90283 14.7803H1.49463C1.1958 14.7803 1.07959 14.6724 1.07959 14.3984C1.07959 12.1821 3.49512 10.1899 6.33398 10.1899C7.5459 10.1899 8.6416 10.5137 9.52148 11.1279C9.729 10.8789 9.96973 10.6548 10.252 10.4473C9.14795 9.65039 7.79492 9.23535 6.33398 9.23535C2.77295 9.23535 0.116699 11.8169 0.116699 14.4482C0.116699 15.3115 0.614746 15.7349 1.62744 15.7349ZM10.5425 15.7349H21.2588C22.4707 15.7349 23.0518 15.3447 23.0518 14.5063C23.0518 12.3398 20.3291 9.26025 15.8965 9.26025C11.4722 9.26025 8.74951 12.3398 8.74951 14.5063C8.74951 15.3447 9.32227 15.7349 10.5425 15.7349ZM10.2769 14.7554C9.90332 14.7554 9.77051 14.6641 9.77051 14.3984C9.77051 12.8296 11.9951 10.2314 15.8965 10.2314C19.7979 10.2314 22.0225 12.8296 22.0225 14.3984C22.0225 14.6641 21.8979 14.7554 21.5161 14.7554H10.2769Z" fill="#F70759"/>
</svg>
