<svg width="21" height="21" viewBox="0 0 21 21" fill="none" xmlns="http://www.w3.org/2000/svg">
<path d="M0.988281 10.5391C0.988281 11.1133 1.46875 11.582 2.03125 11.582H9.61328V19.1641C9.61328 19.7266 10.082 20.207 10.6562 20.207C11.2305 20.207 11.7109 19.7266 11.7109 19.1641V11.582H19.2812C19.8438 11.582 20.3242 11.1133 20.3242 10.5391C20.3242 9.96484 19.8438 9.48438 19.2812 9.48438H11.7109V1.91406C11.7109 1.35156 11.2305 0.871094 10.6562 0.871094C10.082 0.871094 9.61328 1.35156 9.61328 1.91406V9.48438H2.03125C1.46875 9.48438 0.988281 9.96484 0.988281 10.5391Z" fill="#01A8C3"/>
</svg>
