<svg width="12" height="14" viewBox="0 0 12 14" fill="none" xmlns="http://www.w3.org/2000/svg">
<path d="M1.87859 0.660813C1.63037 0.724338 1.41901 0.897807 1.31087 1.1348L1.23959 1.28628L1.23222 6.05795C1.22485 11.3696 1.21256 10.9444 1.39443 11.0006C1.45341 11.0177 1.62545 11.0251 1.85156 11.0177C2.2153 11.0104 2.2153 11.0104 2.27428 10.942L2.33327 10.8736V6.3658C2.33327 1.55504 2.32835 1.74806 2.44386 1.70408C2.46598 1.69675 3.92094 1.68942 5.67819 1.68942H8.8732L8.93218 1.7505C8.99362 1.80914 8.99362 1.81402 8.99362 2.24892C8.99362 2.80354 8.98379 2.78888 9.37457 2.87439C9.52448 2.9086 9.69407 2.95258 9.75305 2.97212C9.90789 3.02343 9.94475 3.01855 10.0283 2.93548L10.102 2.86218L10.0947 2.07545L10.0873 1.28628L10.016 1.1348C9.93492 0.956446 9.76288 0.785419 9.59084 0.704791L9.47287 0.65104L5.7126 0.646153C3.64568 0.646153 1.92037 0.65104 1.87859 0.660813Z" fill="#01A8C3"/>
<path d="M2.78072 2.13425C2.7414 2.17334 2.73648 10.7882 2.77581 10.8884C2.82988 11.0277 2.73157 11.0228 5.6636 11.0228C8.54647 11.0228 8.48503 11.0252 8.54893 10.9055C8.56614 10.8713 8.57597 10.6001 8.57597 10.1212C8.57597 9.39558 8.57597 9.38825 8.5219 9.32473C8.4752 9.27342 8.43096 9.25632 8.28104 9.23677C7.56586 9.14148 6.93177 8.8263 6.4132 8.31078C5.82089 7.7244 5.49893 6.99631 5.46453 6.16072C5.4252 5.28115 5.7447 4.44312 6.36158 3.80787C6.6393 3.52201 6.92931 3.30701 7.2611 3.14575C7.5806 2.98938 7.83374 2.90631 8.17045 2.85256C8.45308 2.80614 8.50961 2.78171 8.54893 2.69864C8.5858 2.61801 8.58334 2.1709 8.54647 2.13425C8.50469 2.09271 2.8225 2.09271 2.78072 2.13425ZM3.92355 6.50522C4.11279 6.57607 4.23568 6.80818 4.17915 6.99142C4.1005 7.25774 3.8277 7.38234 3.58685 7.26018C3.43693 7.18444 3.37794 7.08182 3.37794 6.89369C3.37794 6.76665 3.39023 6.71778 3.43447 6.65426C3.54261 6.50522 3.75397 6.44169 3.92355 6.50522Z" fill="#01A8C3"/>
<path d="M8.15314 3.27503C7.59279 3.39719 7.16269 3.61953 6.767 3.9909C5.60451 5.08303 5.57748 6.89348 6.70802 8.01737C7.41337 8.71858 8.42594 8.99956 9.3869 8.76256C9.672 8.69171 10.0603 8.51824 10.2987 8.35943C10.4855 8.22994 10.8075 7.92942 10.9475 7.74862C11.213 7.40412 11.417 6.94234 11.4907 6.51966C11.5497 6.18494 11.5276 5.64009 11.444 5.32247C11.1859 4.3525 10.4019 3.5731 9.42377 3.31168C9.08461 3.22372 8.47756 3.20417 8.15314 3.27503ZM8.85358 4.62614C8.88308 4.65791 9.00596 4.79473 9.12639 4.93155C9.27631 5.10258 9.36233 5.1832 9.39673 5.1832C9.42623 5.1832 9.60072 5.12701 9.78751 5.06104C9.97429 4.99263 10.1586 4.93888 10.1979 4.93888C10.279 4.93888 10.3626 5.00729 10.3823 5.09036C10.3896 5.12212 10.3528 5.52526 10.2987 5.98703L10.2029 6.82995L10.2741 6.89592C10.3454 6.96189 10.3651 7.05718 10.3307 7.15002C10.2889 7.25752 10.2618 7.25997 8.68646 7.25997H7.19464L7.12337 7.18911C7.0226 7.0865 7.03489 6.96678 7.15777 6.8666L7.20693 6.82751L7.11845 6.0359C7.01031 5.10013 7.01031 5.07082 7.08159 4.99507C7.16023 4.912 7.24379 4.92178 7.63457 5.06349C7.87542 5.15144 8.00076 5.1832 8.04009 5.17343C8.06958 5.16366 8.20967 5.02439 8.34976 4.86314C8.59307 4.58217 8.60536 4.57239 8.70121 4.57239C8.77002 4.57239 8.81426 4.5895 8.85358 4.62614Z" fill="#01A8C3"/>
<path d="M8.65937 5.1538C8.64708 5.16357 8.5414 5.27352 8.42835 5.39813C8.31775 5.52517 8.19978 5.63756 8.17029 5.65222C8.12359 5.67177 8.05969 5.65955 7.84096 5.58381C7.45264 5.44699 7.46985 5.41523 7.55341 6.15309C7.58782 6.47315 7.61731 6.74191 7.61731 6.75168C7.61731 6.76146 7.63451 6.78589 7.65663 6.80544C7.68858 6.83964 7.81884 6.84453 8.70853 6.84453C9.57855 6.84453 9.72847 6.83964 9.7555 6.80788C9.78745 6.76879 9.93246 5.61313 9.91034 5.55938C9.88576 5.49341 9.79728 5.4983 9.55643 5.58381C9.4016 5.64001 9.28854 5.66688 9.25168 5.65711C9.21727 5.64978 9.09438 5.5325 8.96904 5.38835C8.75031 5.14158 8.7159 5.11471 8.65937 5.1538Z" fill="#01A8C3"/>
<path d="M9.65964 9.11951C9.58591 9.14395 9.44091 9.18304 9.33277 9.20259C9.11403 9.24412 9.05505 9.26855 9.01818 9.33696C8.98377 9.40049 8.98377 10.8396 9.02064 10.9055C9.06979 10.9959 9.19022 11.0228 9.54167 11.0228C9.91278 11.0228 10.0111 10.9984 10.0627 10.8982C10.1168 10.798 10.1168 9.271 10.0627 9.16838C10.0037 9.05355 9.88575 9.03889 9.65964 9.11951Z" fill="#01A8C3"/>
<path d="M0.915171 11.4895C0.794744 11.5481 0.647282 11.7021 0.598128 11.8194C0.573551 11.878 0.563721 12.0099 0.563721 12.2885C0.563721 12.6549 0.566178 12.6818 0.627621 12.8015C0.662029 12.8724 0.730844 12.9603 0.779998 13.0019C0.971698 13.1583 0.632536 13.1485 5.66344 13.1485C10.7017 13.1485 10.3552 13.1583 10.5493 12.9994C10.6009 12.9579 10.6722 12.8675 10.7091 12.7966C10.7705 12.6769 10.773 12.6549 10.7754 12.3056C10.7754 12.0539 10.7656 11.9098 10.741 11.8438C10.6968 11.7192 10.5321 11.5408 10.4068 11.4846C10.3134 11.4406 10.1094 11.4382 5.66344 11.4382H1.01839L0.915171 11.4895Z" fill="#01A8C3"/>
</svg>
