<svg width="17" height="17" viewBox="0 0 17 17" fill="none" xmlns="http://www.w3.org/2000/svg">
<path d="M8.36719 16.8281C12.7266 16.8281 16.3359 13.2109 16.3359 8.85938C16.3359 4.5 12.7188 0.890625 8.35938 0.890625C4.00781 0.890625 0.398438 4.5 0.398438 8.85938C0.398438 13.2109 4.01562 16.8281 8.36719 16.8281ZM3.96094 9.52344C3.25781 9.52344 3.17188 8.77344 3.69531 8.52344L11.3047 4.91406C11.9375 4.61719 12.4688 5.14844 12.1797 5.77344L8.60156 13.3984C8.35938 13.9141 7.59375 13.8438 7.59375 13.125V9.78906C7.59375 9.63281 7.49219 9.53125 7.33594 9.53125L3.96094 9.52344Z" fill="white"/>
</svg>
