<svg width="17" height="17" viewBox="0 0 17 17" fill="none" xmlns="http://www.w3.org/2000/svg">
<path d="M8.36719 16.3281C12.7266 16.3281 16.3359 12.7109 16.3359 8.35938C16.3359 4 12.7188 0.390625 8.35938 0.390625C4.00781 0.390625 0.398438 4 0.398438 8.35938C0.398438 12.7109 4.01562 16.3281 8.36719 16.3281ZM9.17969 10.9375C8.67188 11.4766 8.08594 11.4766 7.57812 10.9375L4.42188 7.58594C4.17188 7.32812 4.17188 6.96094 4.39062 6.72656C4.64062 6.46875 5.03125 6.46875 5.25781 6.71094L8.375 10.0156L11.4922 6.71094C11.7266 6.46875 12.1094 6.47656 12.3672 6.72656C12.5938 6.95312 12.5781 7.32812 12.3359 7.58594L9.17969 10.9375Z" fill="#3D3D3D"/>
</svg>
