<svg width="31" height="27" viewBox="0 0 31 27" fill="none" xmlns="http://www.w3.org/2000/svg">
<path d="M1.76074 13.834C2.36133 13.834 2.78613 13.4092 2.78613 12.8232V11.4756C2.78613 8.73633 4.5 7.0957 7.35645 7.0957H18.2695V10.582C18.2695 11.0801 18.5479 11.3438 19.0605 11.3438C19.2949 11.3438 19.5 11.2705 19.7197 11.1094L25.1543 6.72949C25.5938 6.36328 25.623 5.77734 25.1543 5.41113L19.7197 1.0166C19.5 0.855469 19.2949 0.782227 19.0605 0.782227C18.5479 0.782227 18.2695 1.06055 18.2695 1.55859V5.11816H7.51758C3.43066 5.11816 0.735352 7.41797 0.735352 11.3584V12.8232C0.735352 13.4092 1.16016 13.834 1.76074 13.834ZM29.6367 13.043C29.0361 13.043 28.6113 13.4824 28.6113 14.0684V15.416C28.6113 18.1553 26.8975 19.7959 24.041 19.7959H13.1279V16.3242C13.1279 15.8408 12.8496 15.5625 12.3369 15.5625C12.1025 15.5625 11.8975 15.6357 11.6924 15.7969L6.24316 20.1914C5.78906 20.5576 5.77441 21.1289 6.24316 21.4951L11.6924 25.8896C11.8975 26.0508 12.1025 26.124 12.3369 26.124C12.8496 26.124 13.1279 25.8457 13.1279 25.3623V21.7734H23.8799C27.9668 21.7734 30.6621 19.4736 30.6621 15.5332V14.0684C30.6621 13.4824 30.2373 13.043 29.6367 13.043Z" fill="#F70759"/>
</svg>
