<svg width="44" height="28" viewBox="0 0 44 28" fill="none" xmlns="http://www.w3.org/2000/svg">
<path d="M41.6484 3.62793L42.6885 2.58789C43.2158 2.06055 43.2158 1.44531 42.7178 0.947266L42.4688 0.698242C42.0293 0.258789 41.3701 0.302734 40.9014 0.786133L39.8467 1.81152L41.6484 3.62793ZM25.2275 18.5693L28.0254 17.2363L40.6523 4.63867L38.8506 2.83691L26.2383 15.4346L24.8467 18.1592C24.7295 18.3936 24.9932 18.6865 25.2275 18.5693ZM4.63184 27.6221H33.0938C35.584 27.6221 36.9902 26.2451 36.9902 23.7695V11.9336L35.1738 13.7354V23.8281C35.1738 25.1758 34.4268 25.9082 33.0938 25.9082H4.63184C3.28418 25.9082 2.55176 25.1758 2.55176 23.8281V11.875C2.55176 10.5273 3.28418 9.79492 4.63184 9.79492H28.2158L29.915 8.0957H4.63184C2.1416 8.0957 0.735352 9.45801 0.735352 11.9482V23.7695C0.735352 26.2451 2.1416 27.6221 4.63184 27.6221ZM8.19141 19.7705C9.24609 19.7705 10.1104 18.9062 10.1104 17.8516C10.1104 16.7969 9.24609 15.9326 8.19141 15.9326C7.13672 15.9326 6.27246 16.7969 6.27246 17.8516C6.27246 18.9062 7.13672 19.7705 8.19141 19.7705ZM14.2705 19.7705C15.3252 19.7705 16.1748 18.9062 16.1748 17.8516C16.1748 16.7969 15.3252 15.9326 14.2705 15.9326C13.2012 15.9326 12.3516 16.7969 12.3516 17.8516C12.3516 18.9062 13.2012 19.7705 14.2705 19.7705ZM20.3496 19.7705C21.4043 19.7705 22.2686 18.9062 22.2686 17.8516C22.2686 16.7969 21.4043 15.9326 20.3496 15.9326C19.2803 15.9326 18.4307 16.7969 18.4307 17.8516C18.4307 18.9062 19.2803 19.7705 20.3496 19.7705Z" fill="#F70759"/>
</svg>
