<svg width="23" height="23" viewBox="0 0 23 23" fill="none" xmlns="http://www.w3.org/2000/svg">
<path d="M11.6973 22.0186C17.5947 22.0186 22.4717 17.1416 22.4717 11.2441C22.4717 5.33594 17.5947 0.469727 11.6865 0.469727C5.78906 0.469727 0.922852 5.33594 0.922852 11.2441C0.922852 17.1416 5.7998 22.0186 11.6973 22.0186ZM11.6973 20.6221C6.49805 20.6221 2.31934 16.4326 2.31934 11.2441C2.31934 6.04492 6.49805 1.85547 11.6865 1.85547C16.8857 1.85547 21.0859 6.04492 21.0859 11.2441C21.0859 16.4326 16.8965 20.6221 11.6973 20.6221ZM7.94824 15.6807C8.1416 15.6807 8.30273 15.6055 8.44238 15.4658L11.6865 12.2109L14.9521 15.4658C15.0918 15.6055 15.2529 15.6807 15.4463 15.6807C15.8223 15.6807 16.123 15.3799 16.123 15.0039C16.123 14.8105 16.0479 14.6602 15.9082 14.5205L12.6426 11.2549L15.9189 7.97852C16.0693 7.82812 16.123 7.68848 16.123 7.49512C16.123 7.12988 15.8223 6.8291 15.4463 6.8291C15.2744 6.8291 15.124 6.89355 14.9736 7.05469L11.6865 10.3096L8.43164 7.05469C8.29199 6.91504 8.1416 6.85059 7.94824 6.85059C7.57227 6.85059 7.27148 7.12988 7.27148 7.50586C7.27148 7.68848 7.33594 7.84961 7.47559 7.98926L10.7412 11.2549L7.47559 14.5312C7.33594 14.6602 7.27148 14.8213 7.27148 15.0039C7.27148 15.3799 7.57227 15.6807 7.94824 15.6807Z" fill="#003366"/>
</svg>
