<svg width="12" height="12" viewBox="0 0 12 12" fill="none" xmlns="http://www.w3.org/2000/svg">
<path d="M1.24219 11.4141C1.57812 11.75 2.14844 11.7422 2.47656 11.4141L6.28906 7.60938L10.0938 11.4141C10.4219 11.7422 10.9922 11.75 11.3281 11.4141C11.6641 11.0781 11.6562 10.5078 11.3281 10.1797L7.52344 6.36719L11.3281 2.5625C11.6562 2.23438 11.6641 1.66406 11.3281 1.32812C10.9922 0.992188 10.4219 1 10.0938 1.32812L6.28906 5.13281L2.47656 1.32031C2.14844 1 1.57812 0.992188 1.24219 1.32812C0.90625 1.66406 0.914062 2.23438 1.24219 2.5625L5.04688 6.36719L1.24219 10.1797C0.914062 10.5078 0.90625 11.0781 1.24219 11.4141Z" fill="#FF5449"/>
</svg>
